<svg width="681" height="203" viewBox="0 0 681 203" fill="none" xmlns="http://www.w3.org/2000/svg">
<rect width="681" height="203" fill="#D9D9D9"/>
<path d="M51.4091 47V35.3636H58.4318V36.6136H52.8182V40.5455H58.0682V41.7955H52.8182V45.75H58.5227V47H51.4091ZM70.3352 39H68.9261C68.8428 38.5947 68.697 38.2386 68.4886 37.9318C68.2841 37.625 68.0341 37.3674 67.7386 37.1591C67.447 36.947 67.1231 36.7879 66.767 36.6818C66.411 36.5758 66.0398 36.5227 65.6534 36.5227C64.9489 36.5227 64.3106 36.7008 63.7386 37.0568C63.1705 37.4129 62.7178 37.9375 62.3807 38.6307C62.0473 39.3239 61.8807 40.1742 61.8807 41.1818C61.8807 42.1894 62.0473 43.0398 62.3807 43.733C62.7178 44.4261 63.1705 44.9508 63.7386 45.3068C64.3106 45.6629 64.9489 45.8409 65.6534 45.8409C66.0398 45.8409 66.411 45.7879 66.767 45.6818C67.1231 45.5758 67.447 45.4186 67.7386 45.2102C68.0341 44.9981 68.2841 44.7386 68.4886 44.4318C68.697 44.1212 68.8428 43.7652 68.9261 43.3636H70.3352C70.2292 43.9583 70.036 44.4905 69.7557 44.9602C69.4754 45.4299 69.1269 45.8295 68.7102 46.1591C68.2936 46.4848 67.8258 46.733 67.3068 46.9034C66.7917 47.0739 66.2405 47.1591 65.6534 47.1591C64.661 47.1591 63.7784 46.9167 63.0057 46.4318C62.233 45.947 61.625 45.2576 61.1818 44.3636C60.7386 43.4697 60.517 42.4091 60.517 41.1818C60.517 39.9545 60.7386 38.8939 61.1818 38C61.625 37.1061 62.233 36.4167 63.0057 35.9318C63.7784 35.447 64.661 35.2045 65.6534 35.2045C66.2405 35.2045 66.7917 35.2898 67.3068 35.4602C67.8258 35.6307 68.2936 35.8807 68.7102 36.2102C69.1269 36.536 69.4754 36.9337 69.7557 37.4034C70.036 37.8693 70.2292 38.4015 70.3352 39ZM78.9759 38.2727C78.9077 37.697 78.6312 37.25 78.1463 36.9318C77.6615 36.6136 77.0668 36.4545 76.3622 36.4545C75.8471 36.4545 75.3963 36.5379 75.0099 36.7045C74.6274 36.8712 74.3281 37.1004 74.1122 37.392C73.9001 37.6837 73.794 38.0152 73.794 38.3864C73.794 38.697 73.8679 38.964 74.0156 39.1875C74.1671 39.4072 74.3603 39.5909 74.5952 39.7386C74.83 39.8826 75.0762 40.0019 75.3338 40.0966C75.5914 40.1875 75.8281 40.2614 76.044 40.3182L77.2259 40.6364C77.5289 40.7159 77.866 40.8258 78.2372 40.9659C78.6122 41.1061 78.9702 41.2973 79.3111 41.5398C79.6558 41.7784 79.9399 42.0852 80.1634 42.4602C80.3868 42.8352 80.4986 43.2955 80.4986 43.8409C80.4986 44.4697 80.3338 45.0379 80.0043 45.5455C79.6785 46.053 79.2012 46.4564 78.5724 46.7557C77.9474 47.0549 77.188 47.2045 76.294 47.2045C75.4607 47.2045 74.7391 47.0701 74.1293 46.8011C73.5232 46.5322 73.0459 46.1572 72.6974 45.6761C72.3527 45.1951 72.1577 44.6364 72.1122 44H73.5668C73.6046 44.4394 73.7524 44.803 74.0099 45.0909C74.2713 45.375 74.6009 45.5871 74.9986 45.7273C75.4001 45.8636 75.8319 45.9318 76.294 45.9318C76.8319 45.9318 77.3149 45.8447 77.7429 45.6705C78.1709 45.4924 78.5099 45.2462 78.7599 44.9318C79.0099 44.6136 79.1349 44.2424 79.1349 43.8182C79.1349 43.4318 79.027 43.1174 78.8111 42.875C78.5952 42.6326 78.3111 42.4356 77.9588 42.2841C77.6065 42.1326 77.2259 42 76.8168 41.8864L75.3849 41.4773C74.4759 41.2159 73.7562 40.8428 73.2259 40.358C72.6955 39.8731 72.4304 39.2386 72.4304 38.4545C72.4304 37.803 72.6065 37.2348 72.9588 36.75C73.3149 36.2614 73.7921 35.8826 74.3906 35.6136C74.9929 35.3409 75.6652 35.2045 76.4077 35.2045C77.1577 35.2045 77.8243 35.339 78.4077 35.608C78.991 35.8731 79.4531 36.2367 79.794 36.6989C80.1387 37.161 80.3205 37.6856 80.3395 38.2727H78.9759Z" fill="black"/>
<path d="M217.773 38.2727C217.705 37.697 217.428 37.25 216.943 36.9318C216.458 36.6136 215.864 36.4545 215.159 36.4545C214.644 36.4545 214.193 36.5379 213.807 36.7045C213.424 36.8712 213.125 37.1004 212.909 37.392C212.697 37.6837 212.591 38.0152 212.591 38.3864C212.591 38.697 212.665 38.964 212.812 39.1875C212.964 39.4072 213.157 39.5909 213.392 39.7386C213.627 39.8826 213.873 40.0019 214.131 40.0966C214.388 40.1875 214.625 40.2614 214.841 40.3182L216.023 40.6364C216.326 40.7159 216.663 40.8258 217.034 40.9659C217.409 41.1061 217.767 41.2973 218.108 41.5398C218.453 41.7784 218.737 42.0852 218.96 42.4602C219.184 42.8352 219.295 43.2955 219.295 43.8409C219.295 44.4697 219.131 45.0379 218.801 45.5455C218.475 46.053 217.998 46.4564 217.369 46.7557C216.744 47.0549 215.985 47.2045 215.091 47.2045C214.258 47.2045 213.536 47.0701 212.926 46.8011C212.32 46.5322 211.843 46.1572 211.494 45.6761C211.15 45.1951 210.955 44.6364 210.909 44H212.364C212.402 44.4394 212.549 44.803 212.807 45.0909C213.068 45.375 213.398 45.5871 213.795 45.7273C214.197 45.8636 214.629 45.9318 215.091 45.9318C215.629 45.9318 216.112 45.8447 216.54 45.6705C216.968 45.4924 217.307 45.2462 217.557 44.9318C217.807 44.6136 217.932 44.2424 217.932 43.8182C217.932 43.4318 217.824 43.1174 217.608 42.875C217.392 42.6326 217.108 42.4356 216.756 42.2841C216.403 42.1326 216.023 42 215.614 41.8864L214.182 41.4773C213.273 41.2159 212.553 40.8428 212.023 40.358C211.492 39.8731 211.227 39.2386 211.227 38.4545C211.227 37.803 211.403 37.2348 211.756 36.75C212.112 36.2614 212.589 35.8826 213.188 35.6136C213.79 35.3409 214.462 35.2045 215.205 35.2045C215.955 35.2045 216.621 35.339 217.205 35.608C217.788 35.8731 218.25 36.2367 218.591 36.6989C218.936 37.161 219.117 37.6856 219.136 38.2727H217.773ZM222.294 50.2727C222.067 50.2727 221.864 50.2538 221.686 50.2159C221.508 50.1818 221.385 50.1477 221.317 50.1136L221.658 48.9318C221.983 49.0152 222.271 49.0455 222.521 49.0227C222.771 49 222.993 48.8883 223.186 48.6875C223.383 48.4905 223.563 48.1705 223.726 47.7273L223.976 47.0455L220.749 38.2727H222.203L224.612 45.2273H224.703L227.112 38.2727H228.567L224.862 48.2727C224.696 48.7235 224.489 49.0966 224.243 49.392C223.997 49.6913 223.711 49.9129 223.385 50.0568C223.063 50.2008 222.699 50.2727 222.294 50.2727ZM236.518 40.2273L235.314 40.5682C235.238 40.3674 235.126 40.1723 234.979 39.983C234.835 39.7898 234.638 39.6307 234.388 39.5057C234.138 39.3807 233.818 39.3182 233.428 39.3182C232.893 39.3182 232.448 39.4413 232.092 39.6875C231.74 39.9299 231.564 40.2386 231.564 40.6136C231.564 40.947 231.685 41.2102 231.928 41.4034C232.17 41.5966 232.549 41.7576 233.064 41.8864L234.359 42.2045C235.14 42.3939 235.721 42.6837 236.104 43.0739C236.486 43.4602 236.678 43.9583 236.678 44.5682C236.678 45.0682 236.534 45.5152 236.246 45.9091C235.962 46.303 235.564 46.6136 235.053 46.8409C234.541 47.0682 233.946 47.1818 233.268 47.1818C232.378 47.1818 231.642 46.9886 231.058 46.6023C230.475 46.2159 230.106 45.6515 229.95 44.9091L231.223 44.5909C231.344 45.0606 231.573 45.4129 231.911 45.6477C232.251 45.8826 232.696 46 233.246 46C233.871 46 234.367 45.8674 234.734 45.6023C235.106 45.3333 235.291 45.0114 235.291 44.6364C235.291 44.3333 235.185 44.0795 234.973 43.875C234.761 43.6667 234.435 43.5114 233.996 43.4091L232.541 43.0682C231.742 42.8788 231.155 42.5852 230.78 42.1875C230.409 41.786 230.223 41.2841 230.223 40.6818C230.223 40.1894 230.361 39.7538 230.638 39.375C230.918 38.9962 231.299 38.6989 231.78 38.483C232.265 38.267 232.814 38.1591 233.428 38.1591C234.291 38.1591 234.969 38.3485 235.462 38.7273C235.958 39.1061 236.31 39.6061 236.518 40.2273ZM242.491 38.2727V39.4091H237.969V38.2727H242.491ZM239.287 36.1818H240.628V44.5C240.628 44.8788 240.683 45.1629 240.793 45.3523C240.906 45.5379 241.05 45.6629 241.224 45.7273C241.402 45.7879 241.59 45.8182 241.787 45.8182C241.935 45.8182 242.056 45.8106 242.151 45.7955C242.245 45.7765 242.321 45.7614 242.378 45.75L242.651 46.9545C242.56 46.9886 242.433 47.0227 242.27 47.0568C242.107 47.0947 241.901 47.1136 241.651 47.1136C241.272 47.1136 240.901 47.0322 240.537 46.8693C240.177 46.7064 239.878 46.4583 239.639 46.125C239.404 45.7917 239.287 45.3712 239.287 44.8636V36.1818ZM248.074 47.1818C247.233 47.1818 246.508 46.9962 245.898 46.625C245.292 46.25 244.824 45.7273 244.494 45.0568C244.169 44.3826 244.006 43.5985 244.006 42.7045C244.006 41.8106 244.169 41.0227 244.494 40.3409C244.824 39.6553 245.282 39.1212 245.869 38.7386C246.46 38.3523 247.15 38.1591 247.938 38.1591C248.392 38.1591 248.841 38.2348 249.284 38.3864C249.727 38.5379 250.131 38.7841 250.494 39.125C250.858 39.4621 251.148 39.9091 251.364 40.4659C251.58 41.0227 251.688 41.7083 251.688 42.5227V43.0909H244.96V41.9318H250.324C250.324 41.4394 250.225 41 250.028 40.6136C249.835 40.2273 249.559 39.9223 249.199 39.6989C248.843 39.4754 248.422 39.3636 247.938 39.3636C247.403 39.3636 246.941 39.4962 246.551 39.7614C246.165 40.0227 245.867 40.3636 245.659 40.7841C245.451 41.2045 245.347 41.6553 245.347 42.1364V42.9091C245.347 43.5682 245.46 44.1269 245.688 44.5852C245.919 45.0398 246.239 45.3864 246.648 45.625C247.057 45.8598 247.532 45.9773 248.074 45.9773C248.426 45.9773 248.744 45.928 249.028 45.8295C249.316 45.7273 249.564 45.5758 249.773 45.375C249.981 45.1705 250.142 44.9167 250.256 44.6136L251.551 44.9773C251.415 45.4167 251.186 45.803 250.864 46.1364C250.542 46.4659 250.144 46.7235 249.67 46.9091C249.197 47.0909 248.665 47.1818 248.074 47.1818ZM253.727 47V38.2727H255.023V39.6364H255.136C255.318 39.1705 255.612 38.8087 256.017 38.5511C256.422 38.2898 256.909 38.1591 257.477 38.1591C258.053 38.1591 258.532 38.2898 258.915 38.5511C259.301 38.8087 259.602 39.1705 259.818 39.6364H259.909C260.133 39.1856 260.468 38.8277 260.915 38.5625C261.362 38.2936 261.898 38.1591 262.523 38.1591C263.303 38.1591 263.941 38.4034 264.438 38.892C264.934 39.3769 265.182 40.1326 265.182 41.1591V47H263.841V41.1591C263.841 40.5152 263.665 40.0549 263.312 39.7784C262.96 39.5019 262.545 39.3636 262.068 39.3636C261.455 39.3636 260.979 39.5492 260.642 39.9205C260.305 40.2879 260.136 40.7538 260.136 41.3182V47H258.773V41.0227C258.773 40.5265 258.612 40.1269 258.29 39.8239C257.968 39.517 257.553 39.3636 257.045 39.3636C256.697 39.3636 256.371 39.4564 256.068 39.642C255.769 39.8277 255.527 40.0852 255.341 40.4148C255.159 40.7405 255.068 41.1174 255.068 41.5455V47H253.727Z" fill="black"/>
<path d="M51.4091 165V153.364H58.4318V154.614H52.8182V158.545H58.0682V159.795H52.8182V163.75H58.5227V165H51.4091ZM62.1307 159.75V165H60.7898V156.273H62.0852V157.636H62.1989C62.4034 157.193 62.714 156.837 63.1307 156.568C63.5473 156.295 64.0852 156.159 64.7443 156.159C65.3352 156.159 65.8523 156.28 66.2955 156.523C66.7386 156.761 67.0833 157.125 67.3295 157.614C67.5758 158.098 67.6989 158.712 67.6989 159.455V165H66.358V159.545C66.358 158.86 66.1799 158.326 65.8239 157.943C65.4678 157.557 64.9792 157.364 64.358 157.364C63.9299 157.364 63.5473 157.456 63.2102 157.642C62.8769 157.828 62.6136 158.098 62.4205 158.455C62.2273 158.811 62.1307 159.242 62.1307 159.75ZM73.9446 156.273V157.409H69.4219V156.273H73.9446ZM70.7401 154.182H72.081V162.5C72.081 162.879 72.1359 163.163 72.2457 163.352C72.3594 163.538 72.5033 163.663 72.6776 163.727C72.8556 163.788 73.0431 163.818 73.2401 163.818C73.3878 163.818 73.509 163.811 73.6037 163.795C73.6984 163.777 73.7741 163.761 73.831 163.75L74.1037 164.955C74.0128 164.989 73.8859 165.023 73.723 165.057C73.5601 165.095 73.3537 165.114 73.1037 165.114C72.7249 165.114 72.3537 165.032 71.9901 164.869C71.6302 164.706 71.331 164.458 71.0923 164.125C70.8575 163.792 70.7401 163.371 70.7401 162.864V154.182ZM75.9616 165V156.273H77.3026V165H75.9616ZM76.6435 154.818C76.3821 154.818 76.1567 154.729 75.9673 154.551C75.7817 154.373 75.6889 154.159 75.6889 153.909C75.6889 153.659 75.7817 153.445 75.9673 153.267C76.1567 153.089 76.3821 153 76.6435 153C76.9048 153 77.1283 153.089 77.3139 153.267C77.5033 153.445 77.598 153.659 77.598 153.909C77.598 154.159 77.5033 154.373 77.3139 154.551C77.1283 154.729 76.9048 154.818 76.6435 154.818ZM83.554 156.273V157.409H79.0312V156.273H83.554ZM80.3494 154.182H81.6903V162.5C81.6903 162.879 81.7453 163.163 81.8551 163.352C81.9688 163.538 82.1127 163.663 82.2869 163.727C82.465 163.788 82.6525 163.818 82.8494 163.818C82.9972 163.818 83.1184 163.811 83.2131 163.795C83.3078 163.777 83.3835 163.761 83.4403 163.75L83.7131 164.955C83.6222 164.989 83.4953 165.023 83.3324 165.057C83.1695 165.095 82.9631 165.114 82.7131 165.114C82.3343 165.114 81.9631 165.032 81.5994 164.869C81.2396 164.706 80.9403 164.458 80.7017 164.125C80.4669 163.792 80.3494 163.371 80.3494 162.864V154.182ZM86.4347 168.273C86.2074 168.273 86.0047 168.254 85.8267 168.216C85.6487 168.182 85.5256 168.148 85.4574 168.114L85.7983 166.932C86.1241 167.015 86.4119 167.045 86.6619 167.023C86.9119 167 87.1335 166.888 87.3267 166.688C87.5237 166.491 87.7036 166.17 87.8665 165.727L88.1165 165.045L84.8892 156.273H86.3438L88.7528 163.227H88.8438L91.2528 156.273H92.7074L89.0028 166.273C88.8362 166.723 88.6297 167.097 88.3835 167.392C88.1373 167.691 87.8513 167.913 87.5256 168.057C87.2036 168.201 86.84 168.273 86.4347 168.273ZM100.568 153.364V165H99.1591V153.364H100.568ZM104.553 159.75V165H103.212V156.273H104.507V157.636H104.621C104.825 157.193 105.136 156.837 105.553 156.568C105.969 156.295 106.507 156.159 107.166 156.159C107.757 156.159 108.274 156.28 108.717 156.523C109.161 156.761 109.505 157.125 109.751 157.614C109.998 158.098 110.121 158.712 110.121 159.455V165H108.78V159.545C108.78 158.86 108.602 158.326 108.246 157.943C107.89 157.557 107.401 157.364 106.78 157.364C106.352 157.364 105.969 157.456 105.632 157.642C105.299 157.828 105.036 158.098 104.842 158.455C104.649 158.811 104.553 159.242 104.553 159.75ZM115.866 165.182C115.139 165.182 114.497 164.998 113.94 164.631C113.384 164.259 112.948 163.737 112.634 163.062C112.319 162.384 112.162 161.583 112.162 160.659C112.162 159.742 112.319 158.947 112.634 158.273C112.948 157.598 113.385 157.078 113.946 156.71C114.507 156.343 115.154 156.159 115.889 156.159C116.457 156.159 116.906 156.254 117.236 156.443C117.569 156.629 117.823 156.841 117.997 157.08C118.175 157.314 118.313 157.508 118.412 157.659H118.526V153.364H119.866V165H118.571V163.659H118.412C118.313 163.818 118.173 164.019 117.991 164.261C117.81 164.5 117.55 164.714 117.213 164.903C116.876 165.089 116.427 165.182 115.866 165.182ZM116.048 163.977C116.586 163.977 117.041 163.837 117.412 163.557C117.783 163.273 118.065 162.881 118.259 162.381C118.452 161.877 118.548 161.295 118.548 160.636C118.548 159.985 118.454 159.415 118.264 158.926C118.075 158.434 117.795 158.051 117.423 157.778C117.052 157.502 116.594 157.364 116.048 157.364C115.48 157.364 115.007 157.509 114.628 157.801C114.253 158.089 113.971 158.481 113.781 158.977C113.596 159.47 113.503 160.023 113.503 160.636C113.503 161.258 113.598 161.822 113.787 162.33C113.98 162.833 114.264 163.235 114.639 163.534C115.018 163.83 115.488 163.977 116.048 163.977ZM126.168 165.182C125.327 165.182 124.601 164.996 123.991 164.625C123.385 164.25 122.918 163.727 122.588 163.057C122.262 162.383 122.099 161.598 122.099 160.705C122.099 159.811 122.262 159.023 122.588 158.341C122.918 157.655 123.376 157.121 123.963 156.739C124.554 156.352 125.243 156.159 126.031 156.159C126.486 156.159 126.935 156.235 127.378 156.386C127.821 156.538 128.224 156.784 128.588 157.125C128.952 157.462 129.241 157.909 129.457 158.466C129.673 159.023 129.781 159.708 129.781 160.523V161.091H123.054V159.932H128.418C128.418 159.439 128.319 159 128.122 158.614C127.929 158.227 127.652 157.922 127.293 157.699C126.937 157.475 126.516 157.364 126.031 157.364C125.497 157.364 125.035 157.496 124.645 157.761C124.259 158.023 123.961 158.364 123.753 158.784C123.545 159.205 123.44 159.655 123.44 160.136V160.909C123.44 161.568 123.554 162.127 123.781 162.585C124.012 163.04 124.332 163.386 124.741 163.625C125.151 163.86 125.626 163.977 126.168 163.977C126.52 163.977 126.838 163.928 127.122 163.83C127.41 163.727 127.658 163.576 127.866 163.375C128.075 163.17 128.236 162.917 128.349 162.614L129.645 162.977C129.509 163.417 129.279 163.803 128.957 164.136C128.635 164.466 128.238 164.723 127.764 164.909C127.291 165.091 126.759 165.182 126.168 165.182ZM132.587 156.273L134.678 159.841L136.768 156.273H138.314L135.496 160.636L138.314 165H136.768L134.678 161.614L132.587 165H131.041L133.814 160.636L131.041 156.273H132.587Z" fill="black"/>
<path d="M128.636 104.364H130.182L131.477 106.068L131.818 106.523L133.75 109.091H132.205L130.932 107.386L130.614 106.955L128.636 104.364ZM134.227 102.182C134.227 103.409 134.006 104.47 133.562 105.364C133.119 106.258 132.511 106.947 131.739 107.432C130.966 107.917 130.083 108.159 129.091 108.159C128.098 108.159 127.216 107.917 126.443 107.432C125.67 106.947 125.063 106.258 124.619 105.364C124.176 104.47 123.955 103.409 123.955 102.182C123.955 100.955 124.176 99.8939 124.619 99C125.063 98.1061 125.67 97.4167 126.443 96.9318C127.216 96.447 128.098 96.2045 129.091 96.2045C130.083 96.2045 130.966 96.447 131.739 96.9318C132.511 97.4167 133.119 98.1061 133.562 99C134.006 99.8939 134.227 100.955 134.227 102.182ZM132.864 102.182C132.864 101.174 132.695 100.324 132.358 99.6307C132.025 98.9375 131.572 98.4129 131 98.0568C130.432 97.7008 129.795 97.5227 129.091 97.5227C128.386 97.5227 127.748 97.7008 127.176 98.0568C126.608 98.4129 126.155 98.9375 125.818 99.6307C125.485 100.324 125.318 101.174 125.318 102.182C125.318 103.189 125.485 104.04 125.818 104.733C126.155 105.426 126.608 105.951 127.176 106.307C127.748 106.663 128.386 106.841 129.091 106.841C129.795 106.841 130.432 106.663 131 106.307C131.572 105.951 132.025 105.426 132.358 104.733C132.695 104.04 132.864 103.189 132.864 102.182ZM141.915 104.432V99.2727H143.256V108H141.915V106.523H141.824C141.619 106.966 141.301 107.343 140.869 107.653C140.438 107.96 139.892 108.114 139.233 108.114C138.688 108.114 138.203 107.994 137.778 107.756C137.354 107.513 137.021 107.15 136.778 106.665C136.536 106.176 136.415 105.561 136.415 104.818V99.2727H137.756V104.727C137.756 105.364 137.934 105.871 138.29 106.25C138.65 106.629 139.108 106.818 139.665 106.818C139.998 106.818 140.337 106.733 140.682 106.562C141.03 106.392 141.322 106.131 141.557 105.778C141.795 105.426 141.915 104.977 141.915 104.432ZM149.371 108.182C148.53 108.182 147.804 107.996 147.195 107.625C146.589 107.25 146.121 106.727 145.791 106.057C145.465 105.383 145.303 104.598 145.303 103.705C145.303 102.811 145.465 102.023 145.791 101.341C146.121 100.655 146.579 100.121 147.166 99.7386C147.757 99.3523 148.446 99.1591 149.234 99.1591C149.689 99.1591 150.138 99.2348 150.581 99.3864C151.024 99.5379 151.428 99.7841 151.791 100.125C152.155 100.462 152.445 100.909 152.661 101.466C152.876 102.023 152.984 102.708 152.984 103.523V104.091H146.257V102.932H151.621C151.621 102.439 151.522 102 151.325 101.614C151.132 101.227 150.856 100.922 150.496 100.699C150.14 100.475 149.719 100.364 149.234 100.364C148.7 100.364 148.238 100.496 147.848 100.761C147.462 101.023 147.164 101.364 146.956 101.784C146.748 102.205 146.643 102.655 146.643 103.136V103.909C146.643 104.568 146.757 105.127 146.984 105.585C147.215 106.04 147.536 106.386 147.945 106.625C148.354 106.86 148.829 106.977 149.371 106.977C149.723 106.977 150.041 106.928 150.325 106.83C150.613 106.727 150.861 106.576 151.07 106.375C151.278 106.17 151.439 105.917 151.553 105.614L152.848 105.977C152.712 106.417 152.482 106.803 152.161 107.136C151.839 107.466 151.441 107.723 150.967 107.909C150.494 108.091 149.962 108.182 149.371 108.182ZM155.024 108V99.2727H156.32V100.591H156.411C156.57 100.159 156.857 99.8087 157.274 99.5398C157.691 99.2708 158.161 99.1364 158.683 99.1364C158.782 99.1364 158.905 99.1383 159.053 99.142C159.2 99.1458 159.312 99.1515 159.388 99.1591V100.523C159.342 100.511 159.238 100.494 159.075 100.472C158.916 100.445 158.748 100.432 158.57 100.432C158.145 100.432 157.767 100.521 157.433 100.699C157.104 100.873 156.842 101.116 156.649 101.426C156.46 101.733 156.365 102.083 156.365 102.477V108H155.024ZM162.107 111.273C161.879 111.273 161.677 111.254 161.499 111.216C161.321 111.182 161.197 111.148 161.129 111.114L161.47 109.932C161.796 110.015 162.084 110.045 162.334 110.023C162.584 110 162.805 109.888 162.999 109.688C163.196 109.491 163.375 109.17 163.538 108.727L163.788 108.045L160.561 99.2727H162.016L164.425 106.227H164.516L166.925 99.2727H168.379L164.675 109.273C164.508 109.723 164.302 110.097 164.055 110.392C163.809 110.691 163.523 110.913 163.197 111.057C162.875 111.201 162.512 111.273 162.107 111.273Z" fill="black"/>
<path d="M211.409 166V154.364H218.432V155.614H212.818V159.545H218.068V160.795H212.818V164.75H218.523V166H211.409ZM222.131 160.75V166H220.79V157.273H222.085V158.636H222.199C222.403 158.193 222.714 157.837 223.131 157.568C223.547 157.295 224.085 157.159 224.744 157.159C225.335 157.159 225.852 157.28 226.295 157.523C226.739 157.761 227.083 158.125 227.33 158.614C227.576 159.098 227.699 159.712 227.699 160.455V166H226.358V160.545C226.358 159.86 226.18 159.326 225.824 158.943C225.468 158.557 224.979 158.364 224.358 158.364C223.93 158.364 223.547 158.456 223.21 158.642C222.877 158.828 222.614 159.098 222.42 159.455C222.227 159.811 222.131 160.242 222.131 160.75ZM233.945 157.273V158.409H229.422V157.273H233.945ZM230.74 155.182H232.081V163.5C232.081 163.879 232.136 164.163 232.246 164.352C232.359 164.538 232.503 164.663 232.678 164.727C232.856 164.788 233.043 164.818 233.24 164.818C233.388 164.818 233.509 164.811 233.604 164.795C233.698 164.777 233.774 164.761 233.831 164.75L234.104 165.955C234.013 165.989 233.886 166.023 233.723 166.057C233.56 166.095 233.354 166.114 233.104 166.114C232.725 166.114 232.354 166.032 231.99 165.869C231.63 165.706 231.331 165.458 231.092 165.125C230.857 164.792 230.74 164.371 230.74 163.864V155.182ZM235.962 166V157.273H237.303V166H235.962ZM236.643 155.818C236.382 155.818 236.157 155.729 235.967 155.551C235.782 155.373 235.689 155.159 235.689 154.909C235.689 154.659 235.782 154.445 235.967 154.267C236.157 154.089 236.382 154 236.643 154C236.905 154 237.128 154.089 237.314 154.267C237.503 154.445 237.598 154.659 237.598 154.909C237.598 155.159 237.503 155.373 237.314 155.551C237.128 155.729 236.905 155.818 236.643 155.818ZM243.554 157.273V158.409H239.031V157.273H243.554ZM240.349 155.182H241.69V163.5C241.69 163.879 241.745 164.163 241.855 164.352C241.969 164.538 242.113 164.663 242.287 164.727C242.465 164.788 242.652 164.818 242.849 164.818C242.997 164.818 243.118 164.811 243.213 164.795C243.308 164.777 243.384 164.761 243.44 164.75L243.713 165.955C243.622 165.989 243.495 166.023 243.332 166.057C243.17 166.095 242.963 166.114 242.713 166.114C242.334 166.114 241.963 166.032 241.599 165.869C241.24 165.706 240.94 165.458 240.702 165.125C240.467 164.792 240.349 164.371 240.349 163.864V155.182ZM246.435 169.273C246.207 169.273 246.005 169.254 245.827 169.216C245.649 169.182 245.526 169.148 245.457 169.114L245.798 167.932C246.124 168.015 246.412 168.045 246.662 168.023C246.912 168 247.134 167.888 247.327 167.688C247.524 167.491 247.704 167.17 247.866 166.727L248.116 166.045L244.889 157.273H246.344L248.753 164.227H248.844L251.253 157.273H252.707L249.003 167.273C248.836 167.723 248.63 168.097 248.384 168.392C248.137 168.691 247.851 168.913 247.526 169.057C247.204 169.201 246.84 169.273 246.435 169.273Z" fill="black"/>
<path d="M370.886 165H369.409L373.682 153.364H375.136L379.409 165H377.932L374.455 155.205H374.364L370.886 165ZM371.432 160.455H377.386V161.705H371.432V160.455ZM381.04 165V156.273H382.335V157.591H382.426C382.585 157.159 382.873 156.809 383.29 156.54C383.706 156.271 384.176 156.136 384.699 156.136C384.797 156.136 384.92 156.138 385.068 156.142C385.216 156.146 385.328 156.152 385.403 156.159V157.523C385.358 157.511 385.254 157.494 385.091 157.472C384.932 157.445 384.763 157.432 384.585 157.432C384.161 157.432 383.782 157.521 383.449 157.699C383.119 157.873 382.858 158.116 382.665 158.426C382.475 158.733 382.381 159.083 382.381 159.477V165H381.04ZM390.273 165.182C389.455 165.182 388.75 164.989 388.159 164.602C387.568 164.216 387.114 163.684 386.795 163.006C386.477 162.328 386.318 161.553 386.318 160.682C386.318 159.795 386.481 159.013 386.807 158.335C387.136 157.653 387.595 157.121 388.182 156.739C388.773 156.352 389.462 156.159 390.25 156.159C390.864 156.159 391.417 156.273 391.909 156.5C392.402 156.727 392.805 157.045 393.119 157.455C393.434 157.864 393.629 158.341 393.705 158.886H392.364C392.261 158.489 392.034 158.136 391.682 157.83C391.333 157.519 390.864 157.364 390.273 157.364C389.75 157.364 389.292 157.5 388.898 157.773C388.508 158.042 388.203 158.422 387.983 158.915C387.767 159.403 387.659 159.977 387.659 160.636C387.659 161.311 387.765 161.898 387.977 162.398C388.193 162.898 388.496 163.286 388.886 163.562C389.28 163.839 389.742 163.977 390.273 163.977C390.621 163.977 390.938 163.917 391.222 163.795C391.506 163.674 391.746 163.5 391.943 163.273C392.14 163.045 392.28 162.773 392.364 162.455H393.705C393.629 162.97 393.441 163.434 393.142 163.847C392.847 164.256 392.455 164.581 391.966 164.824C391.481 165.062 390.917 165.182 390.273 165.182ZM397.006 159.75V165H395.665V153.364H397.006V157.636H397.119C397.324 157.186 397.631 156.828 398.04 156.562C398.453 156.294 399.002 156.159 399.688 156.159C400.282 156.159 400.803 156.278 401.25 156.517C401.697 156.752 402.044 157.114 402.29 157.602C402.54 158.087 402.665 158.705 402.665 159.455V165H401.324V159.545C401.324 158.852 401.144 158.316 400.784 157.938C400.428 157.555 399.934 157.364 399.301 157.364C398.862 157.364 398.468 157.456 398.119 157.642C397.775 157.828 397.502 158.098 397.301 158.455C397.104 158.811 397.006 159.242 397.006 159.75ZM408.777 165.182C407.936 165.182 407.211 164.996 406.601 164.625C405.995 164.25 405.527 163.727 405.197 163.057C404.872 162.383 404.709 161.598 404.709 160.705C404.709 159.811 404.872 159.023 405.197 158.341C405.527 157.655 405.985 157.121 406.572 156.739C407.163 156.352 407.853 156.159 408.641 156.159C409.095 156.159 409.544 156.235 409.987 156.386C410.43 156.538 410.834 156.784 411.197 157.125C411.561 157.462 411.851 157.909 412.067 158.466C412.283 159.023 412.391 159.708 412.391 160.523V161.091H405.663V159.932H411.027C411.027 159.439 410.929 159 410.732 158.614C410.538 158.227 410.262 157.922 409.902 157.699C409.546 157.475 409.125 157.364 408.641 157.364C408.107 157.364 407.644 157.496 407.254 157.761C406.868 158.023 406.571 158.364 406.362 158.784C406.154 159.205 406.05 159.655 406.05 160.136V160.909C406.05 161.568 406.163 162.127 406.391 162.585C406.622 163.04 406.942 163.386 407.351 163.625C407.76 163.86 408.235 163.977 408.777 163.977C409.129 163.977 409.447 163.928 409.732 163.83C410.019 163.727 410.268 163.576 410.476 163.375C410.684 163.17 410.845 162.917 410.959 162.614L412.254 162.977C412.118 163.417 411.889 163.803 411.567 164.136C411.245 164.466 410.847 164.723 410.374 164.909C409.9 165.091 409.368 165.182 408.777 165.182ZM418.226 156.273V157.409H413.703V156.273H418.226ZM415.021 154.182H416.362V162.5C416.362 162.879 416.417 163.163 416.527 163.352C416.641 163.538 416.785 163.663 416.959 163.727C417.137 163.788 417.324 163.818 417.521 163.818C417.669 163.818 417.79 163.811 417.885 163.795C417.98 163.777 418.055 163.761 418.112 163.75L418.385 164.955C418.294 164.989 418.167 165.023 418.004 165.057C417.841 165.095 417.635 165.114 417.385 165.114C417.006 165.114 416.635 165.032 416.271 164.869C415.911 164.706 415.612 164.458 415.374 164.125C415.139 163.792 415.021 163.371 415.021 162.864V154.182ZM421.107 168.273C420.879 168.273 420.677 168.254 420.499 168.216C420.321 168.182 420.197 168.148 420.129 168.114L420.47 166.932C420.796 167.015 421.084 167.045 421.334 167.023C421.584 167 421.805 166.888 421.999 166.688C422.196 166.491 422.375 166.17 422.538 165.727L422.788 165.045L419.561 156.273H421.016L423.425 163.227H423.516L425.925 156.273H427.379L423.675 166.273C423.508 166.723 423.302 167.097 423.055 167.392C422.809 167.691 422.523 167.913 422.197 168.057C421.875 168.201 421.512 168.273 421.107 168.273ZM429.149 168.273V156.273H430.445V157.659H430.604C430.702 157.508 430.839 157.314 431.013 157.08C431.191 156.841 431.445 156.629 431.774 156.443C432.107 156.254 432.558 156.159 433.126 156.159C433.861 156.159 434.509 156.343 435.07 156.71C435.63 157.078 436.068 157.598 436.382 158.273C436.696 158.947 436.854 159.742 436.854 160.659C436.854 161.583 436.696 162.384 436.382 163.062C436.068 163.737 435.632 164.259 435.075 164.631C434.518 164.998 433.876 165.182 433.149 165.182C432.589 165.182 432.14 165.089 431.803 164.903C431.465 164.714 431.206 164.5 431.024 164.261C430.842 164.019 430.702 163.818 430.604 163.659H430.49V168.273H429.149ZM430.467 160.636C430.467 161.295 430.564 161.877 430.757 162.381C430.95 162.881 431.232 163.273 431.604 163.557C431.975 163.837 432.429 163.977 432.967 163.977C433.528 163.977 433.996 163.83 434.371 163.534C434.75 163.235 435.034 162.833 435.223 162.33C435.416 161.822 435.513 161.258 435.513 160.636C435.513 160.023 435.418 159.47 435.229 158.977C435.043 158.481 434.761 158.089 434.382 157.801C434.007 157.509 433.536 157.364 432.967 157.364C432.422 157.364 431.964 157.502 431.592 157.778C431.221 158.051 430.941 158.434 430.751 158.926C430.562 159.415 430.467 159.985 430.467 160.636ZM442.558 165.182C441.717 165.182 440.992 164.996 440.382 164.625C439.776 164.25 439.308 163.727 438.979 163.057C438.653 162.383 438.49 161.598 438.49 160.705C438.49 159.811 438.653 159.023 438.979 158.341C439.308 157.655 439.767 157.121 440.354 156.739C440.945 156.352 441.634 156.159 442.422 156.159C442.876 156.159 443.325 156.235 443.768 156.386C444.212 156.538 444.615 156.784 444.979 157.125C445.342 157.462 445.632 157.909 445.848 158.466C446.064 159.023 446.172 159.708 446.172 160.523V161.091H439.445V159.932H444.808C444.808 159.439 444.71 159 444.513 158.614C444.32 158.227 444.043 157.922 443.683 157.699C443.327 157.475 442.907 157.364 442.422 157.364C441.888 157.364 441.426 157.496 441.036 157.761C440.649 158.023 440.352 158.364 440.143 158.784C439.935 159.205 439.831 159.655 439.831 160.136V160.909C439.831 161.568 439.945 162.127 440.172 162.585C440.403 163.04 440.723 163.386 441.132 163.625C441.541 163.86 442.017 163.977 442.558 163.977C442.911 163.977 443.229 163.928 443.513 163.83C443.801 163.727 444.049 163.576 444.257 163.375C444.465 163.17 444.626 162.917 444.74 162.614L446.036 162.977C445.899 163.417 445.67 163.803 445.348 164.136C445.026 164.466 444.628 164.723 444.155 164.909C443.681 165.091 443.149 165.182 442.558 165.182Z" fill="black"/>
<path d="M538.773 156H537.364C537.28 155.595 537.134 155.239 536.926 154.932C536.722 154.625 536.472 154.367 536.176 154.159C535.884 153.947 535.561 153.788 535.205 153.682C534.848 153.576 534.477 153.523 534.091 153.523C533.386 153.523 532.748 153.701 532.176 154.057C531.608 154.413 531.155 154.938 530.818 155.631C530.485 156.324 530.318 157.174 530.318 158.182C530.318 159.189 530.485 160.04 530.818 160.733C531.155 161.426 531.608 161.951 532.176 162.307C532.748 162.663 533.386 162.841 534.091 162.841C534.477 162.841 534.848 162.788 535.205 162.682C535.561 162.576 535.884 162.419 536.176 162.21C536.472 161.998 536.722 161.739 536.926 161.432C537.134 161.121 537.28 160.765 537.364 160.364H538.773C538.667 160.958 538.473 161.491 538.193 161.96C537.913 162.43 537.564 162.83 537.148 163.159C536.731 163.485 536.263 163.733 535.744 163.903C535.229 164.074 534.678 164.159 534.091 164.159C533.098 164.159 532.216 163.917 531.443 163.432C530.67 162.947 530.063 162.258 529.619 161.364C529.176 160.47 528.955 159.409 528.955 158.182C528.955 156.955 529.176 155.894 529.619 155C530.063 154.106 530.67 153.417 531.443 152.932C532.216 152.447 533.098 152.205 534.091 152.205C534.678 152.205 535.229 152.29 535.744 152.46C536.263 152.631 536.731 152.881 537.148 153.21C537.564 153.536 537.913 153.934 538.193 154.403C538.473 154.869 538.667 155.402 538.773 156ZM544.413 164.182C543.625 164.182 542.934 163.994 542.339 163.619C541.749 163.244 541.286 162.72 540.953 162.045C540.624 161.371 540.459 160.583 540.459 159.682C540.459 158.773 540.624 157.979 540.953 157.301C541.286 156.623 541.749 156.097 542.339 155.722C542.934 155.347 543.625 155.159 544.413 155.159C545.201 155.159 545.891 155.347 546.482 155.722C547.076 156.097 547.538 156.623 547.868 157.301C548.201 157.979 548.368 158.773 548.368 159.682C548.368 160.583 548.201 161.371 547.868 162.045C547.538 162.72 547.076 163.244 546.482 163.619C545.891 163.994 545.201 164.182 544.413 164.182ZM544.413 162.977C545.012 162.977 545.504 162.824 545.891 162.517C546.277 162.21 546.563 161.807 546.749 161.307C546.934 160.807 547.027 160.265 547.027 159.682C547.027 159.098 546.934 158.555 546.749 158.051C546.563 157.547 546.277 157.14 545.891 156.83C545.504 156.519 545.012 156.364 544.413 156.364C543.815 156.364 543.322 156.519 542.936 156.83C542.55 157.14 542.264 157.547 542.078 158.051C541.893 158.555 541.8 159.098 541.8 159.682C541.8 160.265 541.893 160.807 542.078 161.307C542.264 161.807 542.55 162.21 542.936 162.517C543.322 162.824 543.815 162.977 544.413 162.977ZM550.415 164V155.273H551.71V156.636H551.824C552.006 156.17 552.299 155.809 552.705 155.551C553.11 155.29 553.597 155.159 554.165 155.159C554.741 155.159 555.22 155.29 555.602 155.551C555.989 155.809 556.29 156.17 556.506 156.636H556.597C556.82 156.186 557.155 155.828 557.602 155.562C558.049 155.294 558.585 155.159 559.21 155.159C559.991 155.159 560.629 155.403 561.125 155.892C561.621 156.377 561.869 157.133 561.869 158.159V164H560.528V158.159C560.528 157.515 560.352 157.055 560 156.778C559.648 156.502 559.233 156.364 558.756 156.364C558.142 156.364 557.667 156.549 557.33 156.92C556.992 157.288 556.824 157.754 556.824 158.318V164H555.46V158.023C555.46 157.527 555.299 157.127 554.977 156.824C554.655 156.517 554.241 156.364 553.733 156.364C553.384 156.364 553.059 156.456 552.756 156.642C552.456 156.828 552.214 157.085 552.028 157.415C551.847 157.741 551.756 158.117 551.756 158.545V164H550.415ZM564.321 167.273V155.273H565.616V156.659H565.776C565.874 156.508 566.01 156.314 566.185 156.08C566.363 155.841 566.616 155.629 566.946 155.443C567.279 155.254 567.73 155.159 568.298 155.159C569.033 155.159 569.681 155.343 570.241 155.71C570.802 156.078 571.24 156.598 571.554 157.273C571.868 157.947 572.026 158.742 572.026 159.659C572.026 160.583 571.868 161.384 571.554 162.062C571.24 162.737 570.804 163.259 570.247 163.631C569.69 163.998 569.048 164.182 568.321 164.182C567.76 164.182 567.312 164.089 566.974 163.903C566.637 163.714 566.378 163.5 566.196 163.261C566.014 163.019 565.874 162.818 565.776 162.659H565.662V167.273H564.321ZM565.639 159.636C565.639 160.295 565.736 160.877 565.929 161.381C566.122 161.881 566.404 162.273 566.776 162.557C567.147 162.837 567.601 162.977 568.139 162.977C568.7 162.977 569.168 162.83 569.543 162.534C569.921 162.235 570.205 161.833 570.395 161.33C570.588 160.822 570.685 160.258 570.685 159.636C570.685 159.023 570.59 158.47 570.401 157.977C570.215 157.481 569.933 157.089 569.554 156.801C569.179 156.509 568.707 156.364 568.139 156.364C567.594 156.364 567.135 156.502 566.764 156.778C566.393 157.051 566.113 157.434 565.923 157.926C565.734 158.415 565.639 158.985 565.639 159.636ZM577.616 164.182C576.829 164.182 576.137 163.994 575.543 163.619C574.952 163.244 574.49 162.72 574.156 162.045C573.827 161.371 573.662 160.583 573.662 159.682C573.662 158.773 573.827 157.979 574.156 157.301C574.49 156.623 574.952 156.097 575.543 155.722C576.137 155.347 576.829 155.159 577.616 155.159C578.404 155.159 579.094 155.347 579.685 155.722C580.279 156.097 580.741 156.623 581.071 157.301C581.404 157.979 581.571 158.773 581.571 159.682C581.571 160.583 581.404 161.371 581.071 162.045C580.741 162.72 580.279 163.244 579.685 163.619C579.094 163.994 578.404 164.182 577.616 164.182ZM577.616 162.977C578.215 162.977 578.707 162.824 579.094 162.517C579.48 162.21 579.766 161.807 579.952 161.307C580.137 160.807 580.23 160.265 580.23 159.682C580.23 159.098 580.137 158.555 579.952 158.051C579.766 157.547 579.48 157.14 579.094 156.83C578.707 156.519 578.215 156.364 577.616 156.364C577.018 156.364 576.526 156.519 576.139 156.83C575.753 157.14 575.467 157.547 575.281 158.051C575.096 158.555 575.003 159.098 575.003 159.682C575.003 160.265 575.096 160.807 575.281 161.307C575.467 161.807 575.753 162.21 576.139 162.517C576.526 162.824 577.018 162.977 577.616 162.977ZM584.959 158.75V164H583.618V155.273H584.913V156.636H585.027C585.232 156.193 585.542 155.837 585.959 155.568C586.375 155.295 586.913 155.159 587.572 155.159C588.163 155.159 588.68 155.28 589.124 155.523C589.567 155.761 589.911 156.125 590.158 156.614C590.404 157.098 590.527 157.712 590.527 158.455V164H589.186V158.545C589.186 157.86 589.008 157.326 588.652 156.943C588.296 156.557 587.807 156.364 587.186 156.364C586.758 156.364 586.375 156.456 586.038 156.642C585.705 156.828 585.442 157.098 585.249 157.455C585.055 157.811 584.959 158.242 584.959 158.75ZM596.636 164.182C595.795 164.182 595.07 163.996 594.46 163.625C593.854 163.25 593.386 162.727 593.057 162.057C592.731 161.383 592.568 160.598 592.568 159.705C592.568 158.811 592.731 158.023 593.057 157.341C593.386 156.655 593.845 156.121 594.432 155.739C595.023 155.352 595.712 155.159 596.5 155.159C596.955 155.159 597.403 155.235 597.847 155.386C598.29 155.538 598.693 155.784 599.057 156.125C599.42 156.462 599.71 156.909 599.926 157.466C600.142 158.023 600.25 158.708 600.25 159.523V160.091H593.523V158.932H598.886C598.886 158.439 598.788 158 598.591 157.614C598.398 157.227 598.121 156.922 597.761 156.699C597.405 156.475 596.985 156.364 596.5 156.364C595.966 156.364 595.504 156.496 595.114 156.761C594.727 157.023 594.43 157.364 594.222 157.784C594.013 158.205 593.909 158.655 593.909 159.136V159.909C593.909 160.568 594.023 161.127 594.25 161.585C594.481 162.04 594.801 162.386 595.21 162.625C595.619 162.86 596.095 162.977 596.636 162.977C596.989 162.977 597.307 162.928 597.591 162.83C597.879 162.727 598.127 162.576 598.335 162.375C598.544 162.17 598.705 161.917 598.818 161.614L600.114 161.977C599.977 162.417 599.748 162.803 599.426 163.136C599.104 163.466 598.706 163.723 598.233 163.909C597.759 164.091 597.227 164.182 596.636 164.182ZM603.631 158.75V164H602.29V155.273H603.585V156.636H603.699C603.903 156.193 604.214 155.837 604.631 155.568C605.047 155.295 605.585 155.159 606.244 155.159C606.835 155.159 607.352 155.28 607.795 155.523C608.239 155.761 608.583 156.125 608.83 156.614C609.076 157.098 609.199 157.712 609.199 158.455V164H607.858V158.545C607.858 157.86 607.68 157.326 607.324 156.943C606.968 156.557 606.479 156.364 605.858 156.364C605.43 156.364 605.047 156.456 604.71 156.642C604.377 156.828 604.114 157.098 603.92 157.455C603.727 157.811 603.631 158.242 603.631 158.75ZM615.445 155.273V156.409H610.922V155.273H615.445ZM612.24 153.182H613.581V161.5C613.581 161.879 613.636 162.163 613.746 162.352C613.859 162.538 614.003 162.663 614.178 162.727C614.356 162.788 614.543 162.818 614.74 162.818C614.888 162.818 615.009 162.811 615.104 162.795C615.198 162.777 615.274 162.761 615.331 162.75L615.604 163.955C615.513 163.989 615.386 164.023 615.223 164.057C615.06 164.095 614.854 164.114 614.604 164.114C614.225 164.114 613.854 164.032 613.49 163.869C613.13 163.706 612.831 163.458 612.592 163.125C612.357 162.792 612.24 162.371 612.24 161.864V153.182Z" fill="black"/>
<rect x="44.5" y="27.5" width="113" height="24" stroke="black"/>
<rect x="204.5" y="27.5" width="112" height="24" stroke="black"/>
<rect x="204.5" y="146.5" width="112" height="24" stroke="black"/>
<rect x="44.5" y="146.5" width="113" height="24" stroke="black"/>
<rect x="363.5" y="146.5" width="113" height="24" stroke="black"/>
<rect x="523.5" y="146.5" width="113" height="23" stroke="black"/>
<rect x="118.5" y="88.5" width="113" height="24" stroke="black"/>
<path d="M98 146L100.887 141H95.1132L98 146ZM97.5 51V141.5H98.5V51H97.5Z" fill="black"/>
<path d="M261 145L263.887 140H258.113L261 145ZM260.5 52V140.5H261.5V52H260.5Z" fill="black"/>
<path d="M101 146L106.747 146.553L104.352 141.3L101 146ZM174.293 112.045L104.887 143.679L105.302 144.589L174.707 112.955L174.293 112.045Z" fill="black"/>
<path d="M179 88L184.739 88.6333L182.418 83.3468L179 88ZM260.799 51.5422L182.919 85.7332L183.321 86.6489L261.201 52.4578L260.799 51.5422Z" fill="black"/>
<path d="M580 145L576.008 140.829L574.392 146.372L580 145ZM575.82 143.261L261.14 51.52L260.86 52.48L575.54 144.221L575.82 143.261Z" fill="black"/>
<path d="M361 158L356 155.113V160.887L361 158ZM317 158.5L356.5 158.5V157.5L317 157.5V158.5Z" fill="black"/>
<path d="M202 158L197 155.113V160.887L202 158ZM158 158.5L197.5 158.5V157.5L158 157.5V158.5Z" fill="black"/>
<path d="M202 158L197 155.113V160.887L202 158ZM158 158.5L197.5 158.5V157.5L158 157.5V158.5Z" fill="black"/>
<path d="M202 39L197 36.1132V41.8868L202 39ZM158 39.5L197.5 39.5V38.5L158 38.5V39.5Z" fill="black"/>
<path d="M521 158L516 155.113V160.887L521 158ZM477 158.5L516.5 158.5V157.5L477 157.5V158.5Z" fill="black"/>
</svg>
