<svg width="419" height="154" viewBox="0 0 419 154" fill="none" xmlns="http://www.w3.org/2000/svg">
<rect width="419" height="154" fill="white"/>
<path d="M34.0568 22V13.2727H39.3239V14.2102H35.1136V17.1591H39.0511V18.0966H35.1136V21.0625H39.392V22H34.0568ZM48.2514 16H47.1946C47.1321 15.696 47.0227 15.429 46.8665 15.1989C46.7131 14.9688 46.5256 14.7756 46.304 14.6193C46.0852 14.4602 45.8423 14.3409 45.5753 14.2614C45.3082 14.1818 45.0298 14.142 44.7401 14.142C44.2116 14.142 43.733 14.2756 43.304 14.5426C42.8778 14.8097 42.5384 15.2031 42.2855 15.723C42.0355 16.2429 41.9105 16.8807 41.9105 17.6364C41.9105 18.392 42.0355 19.0298 42.2855 19.5497C42.5384 20.0696 42.8778 20.4631 43.304 20.7301C43.733 20.9972 44.2116 21.1307 44.7401 21.1307C45.0298 21.1307 45.3082 21.0909 45.5753 21.0114C45.8423 20.9318 46.0852 20.8139 46.304 20.6577C46.5256 20.4986 46.7131 20.304 46.8665 20.0739C47.0227 19.8409 47.1321 19.5739 47.1946 19.2727H48.2514C48.1719 19.7187 48.027 20.1179 47.8168 20.4702C47.6065 20.8224 47.3452 21.1222 47.0327 21.3693C46.7202 21.6136 46.3693 21.7997 45.9801 21.9276C45.5938 22.0554 45.1804 22.1193 44.7401 22.1193C43.9957 22.1193 43.3338 21.9375 42.7543 21.5739C42.1747 21.2102 41.7188 20.6932 41.3864 20.0227C41.054 19.3523 40.8878 18.5568 40.8878 17.6364C40.8878 16.7159 41.054 15.9205 41.3864 15.25C41.7188 14.5795 42.1747 14.0625 42.7543 13.6989C43.3338 13.3352 43.9957 13.1534 44.7401 13.1534C45.1804 13.1534 45.5938 13.2173 45.9801 13.3452C46.3693 13.473 46.7202 13.6605 47.0327 13.9077C47.3452 14.152 47.6065 14.4503 47.8168 14.8026C48.027 15.152 48.1719 15.5511 48.2514 16ZM54.7319 15.4545C54.6808 15.0227 54.4734 14.6875 54.1097 14.4489C53.7461 14.2102 53.3001 14.0909 52.7717 14.0909C52.3853 14.0909 52.0472 14.1534 51.7575 14.2784C51.4705 14.4034 51.2461 14.5753 51.0842 14.794C50.9251 15.0128 50.8455 15.2614 50.8455 15.5398C50.8455 15.7727 50.9009 15.973 51.0117 16.1406C51.1254 16.3054 51.2702 16.4432 51.4464 16.554C51.6225 16.6619 51.8072 16.7514 52.0004 16.8224C52.1935 16.8906 52.3711 16.946 52.533 16.9886L53.4194 17.2273C53.6467 17.2869 53.8995 17.3693 54.1779 17.4744C54.4592 17.5795 54.7276 17.723 54.9833 17.9048C55.2418 18.0838 55.4549 18.3139 55.6225 18.5952C55.7901 18.8764 55.8739 19.2216 55.8739 19.6307C55.8739 20.1023 55.7504 20.5284 55.5032 20.9091C55.2589 21.2898 54.9009 21.5923 54.4293 21.8168C53.9606 22.0412 53.391 22.1534 52.7205 22.1534C52.0955 22.1534 51.5543 22.0526 51.0969 21.8509C50.6424 21.6491 50.2844 21.3679 50.0231 21.0071C49.7646 20.6463 49.6183 20.2273 49.5842 19.75H50.6751C50.7035 20.0795 50.8143 20.3523 51.0075 20.5682C51.2035 20.7812 51.4506 20.9403 51.7489 21.0455C52.0501 21.1477 52.3739 21.1989 52.7205 21.1989C53.1239 21.1989 53.4862 21.1335 53.8072 21.0028C54.1282 20.8693 54.3825 20.6847 54.57 20.4489C54.7575 20.2102 54.8512 19.9318 54.8512 19.6136C54.8512 19.3239 54.7702 19.0881 54.6083 18.9062C54.4464 18.7244 54.2333 18.5767 53.9691 18.4631C53.7049 18.3494 53.4194 18.25 53.1126 18.1648L52.0387 17.858C51.3569 17.6619 50.8171 17.3821 50.4194 17.0185C50.0217 16.6548 49.8228 16.179 49.8228 15.5909C49.8228 15.1023 49.9549 14.6761 50.2191 14.3125C50.4862 13.946 50.8441 13.6619 51.293 13.4602C51.7447 13.2557 52.2489 13.1534 52.8058 13.1534C53.3683 13.1534 53.8683 13.2543 54.3058 13.456C54.7433 13.6548 55.0898 13.9276 55.3455 14.2741C55.604 14.6207 55.7404 15.0142 55.7546 15.4545H54.7319Z" fill="black"/>
<path d="M86.2273 88.2727H87.3864L88.358 89.5511L88.6136 89.892L90.0625 91.8182H88.9034L87.9489 90.5398L87.7102 90.2159L86.2273 88.2727ZM90.4205 86.6364C90.4205 87.5568 90.2543 88.3523 89.9219 89.0227C89.5895 89.6932 89.1335 90.2102 88.554 90.5739C87.9744 90.9375 87.3125 91.1193 86.5682 91.1193C85.8239 91.1193 85.1619 90.9375 84.5824 90.5739C84.0028 90.2102 83.5469 89.6932 83.2145 89.0227C82.8821 88.3523 82.7159 87.5568 82.7159 86.6364C82.7159 85.7159 82.8821 84.9205 83.2145 84.25C83.5469 83.5795 84.0028 83.0625 84.5824 82.6989C85.1619 82.3352 85.8239 82.1534 86.5682 82.1534C87.3125 82.1534 87.9744 82.3352 88.554 82.6989C89.1335 83.0625 89.5895 83.5795 89.9219 84.25C90.2543 84.9205 90.4205 85.7159 90.4205 86.6364ZM89.3977 86.6364C89.3977 85.8807 89.2713 85.2429 89.0185 84.723C88.7685 84.2031 88.429 83.8097 88 83.5426C87.5739 83.2756 87.0966 83.142 86.5682 83.142C86.0398 83.142 85.5611 83.2756 85.1321 83.5426C84.706 83.8097 84.3665 84.2031 84.1136 84.723C83.8636 85.2429 83.7386 85.8807 83.7386 86.6364C83.7386 87.392 83.8636 88.0298 84.1136 88.5497C84.3665 89.0696 84.706 89.4631 85.1321 89.7301C85.5611 89.9972 86.0398 90.1307 86.5682 90.1307C87.0966 90.1307 87.5739 89.9972 88 89.7301C88.429 89.4631 88.7685 89.0696 89.0185 88.5497C89.2713 88.0298 89.3977 87.392 89.3977 86.6364ZM96.1861 88.3239V84.4545H97.1918V91H96.1861V89.892H96.1179C95.9645 90.2244 95.7259 90.5071 95.402 90.7401C95.0781 90.9702 94.669 91.0852 94.1747 91.0852C93.7656 91.0852 93.402 90.9957 93.0838 90.8168C92.7656 90.6349 92.5156 90.3622 92.3338 89.9986C92.152 89.6321 92.0611 89.1705 92.0611 88.6136V84.4545H93.0668V88.5455C93.0668 89.0227 93.2003 89.4034 93.4673 89.6875C93.7372 89.9716 94.081 90.1136 94.4986 90.1136C94.7486 90.1136 95.0028 90.0497 95.2614 89.9219C95.5227 89.794 95.7415 89.598 95.9176 89.3338C96.0966 89.0696 96.1861 88.733 96.1861 88.3239ZM101.778 91.1364C101.147 91.1364 100.603 90.9972 100.146 90.7188C99.6914 90.4375 99.3406 90.0455 99.0934 89.5426C98.8491 89.0369 98.7269 88.4489 98.7269 87.7784C98.7269 87.108 98.8491 86.517 99.0934 86.0057C99.3406 85.4915 99.6843 85.0909 100.125 84.804C100.568 84.5142 101.085 84.3693 101.676 84.3693C102.017 84.3693 102.353 84.4261 102.686 84.5398C103.018 84.6534 103.321 84.8381 103.593 85.0938C103.866 85.3466 104.083 85.6818 104.245 86.0994C104.407 86.517 104.488 87.0312 104.488 87.642V88.0682H99.4428V87.1989H103.466C103.466 86.8295 103.392 86.5 103.244 86.2102C103.099 85.9205 102.892 85.6918 102.622 85.5241C102.355 85.3565 102.039 85.2727 101.676 85.2727C101.275 85.2727 100.929 85.3722 100.636 85.571C100.346 85.767 100.123 86.0227 99.967 86.3381C99.8107 86.6534 99.7326 86.9915 99.7326 87.3523V87.9318C99.7326 88.4261 99.8178 88.8452 99.9883 89.1889C100.162 89.5298 100.402 89.7898 100.708 89.9688C101.015 90.1449 101.372 90.233 101.778 90.233C102.042 90.233 102.281 90.196 102.494 90.1222C102.71 90.0455 102.896 89.9318 103.052 89.7812C103.208 89.6278 103.329 89.4375 103.414 89.2102L104.386 89.483C104.284 89.8125 104.112 90.1023 103.87 90.3523C103.629 90.5994 103.331 90.7926 102.975 90.9318C102.62 91.0682 102.221 91.1364 101.778 91.1364ZM106.018 91V84.4545H106.99V85.4432H107.058C107.177 85.1193 107.393 84.8565 107.706 84.6548C108.018 84.4531 108.37 84.3523 108.762 84.3523C108.836 84.3523 108.929 84.3537 109.039 84.3565C109.15 84.3594 109.234 84.3636 109.291 84.3693V85.392C109.257 85.3835 109.179 85.3707 109.056 85.3537C108.937 85.3338 108.811 85.3239 108.677 85.3239C108.359 85.3239 108.075 85.3906 107.825 85.5241C107.578 85.6548 107.382 85.8366 107.237 86.0696C107.095 86.2997 107.024 86.5625 107.024 86.858V91H106.018ZM111.33 93.4545C111.159 93.4545 111.007 93.4403 110.874 93.4119C110.74 93.3864 110.648 93.3608 110.597 93.3352L110.853 92.4489C111.097 92.5114 111.313 92.5341 111.5 92.517C111.688 92.5 111.854 92.4162 111.999 92.2656C112.147 92.1179 112.282 91.8778 112.404 91.5455L112.591 91.0341L110.171 84.4545H111.262L113.069 89.6705H113.137L114.944 84.4545H116.034L113.256 91.9545C113.131 92.2926 112.976 92.5724 112.792 92.794C112.607 93.0185 112.392 93.1847 112.148 93.2926C111.907 93.4006 111.634 93.4545 111.33 93.4545Z" fill="black"/>
<path d="M136.83 15.4545C136.778 15.0227 136.571 14.6875 136.207 14.4489C135.844 14.2102 135.398 14.0909 134.869 14.0909C134.483 14.0909 134.145 14.1534 133.855 14.2784C133.568 14.4034 133.344 14.5753 133.182 14.794C133.023 15.0128 132.943 15.2614 132.943 15.5398C132.943 15.7727 132.999 15.973 133.109 16.1406C133.223 16.3054 133.368 16.4432 133.544 16.554C133.72 16.6619 133.905 16.7514 134.098 16.8224C134.291 16.8906 134.469 16.946 134.631 16.9886L135.517 17.2273C135.744 17.2869 135.997 17.3693 136.276 17.4744C136.557 17.5795 136.825 17.723 137.081 17.9048C137.339 18.0838 137.553 18.3139 137.72 18.5952C137.888 18.8764 137.972 19.2216 137.972 19.6307C137.972 20.1023 137.848 20.5284 137.601 20.9091C137.357 21.2898 136.999 21.5923 136.527 21.8168C136.058 22.0412 135.489 22.1534 134.818 22.1534C134.193 22.1534 133.652 22.0526 133.195 21.8509C132.74 21.6491 132.382 21.3679 132.121 21.0071C131.862 20.6463 131.716 20.2273 131.682 19.75H132.773C132.801 20.0795 132.912 20.3523 133.105 20.5682C133.301 20.7812 133.548 20.9403 133.847 21.0455C134.148 21.1477 134.472 21.1989 134.818 21.1989C135.222 21.1989 135.584 21.1335 135.905 21.0028C136.226 20.8693 136.48 20.6847 136.668 20.4489C136.855 20.2102 136.949 19.9318 136.949 19.6136C136.949 19.3239 136.868 19.0881 136.706 18.9062C136.544 18.7244 136.331 18.5767 136.067 18.4631C135.803 18.3494 135.517 18.25 135.21 18.1648L134.136 17.858C133.455 17.6619 132.915 17.3821 132.517 17.0185C132.119 16.6548 131.92 16.179 131.92 15.5909C131.92 15.1023 132.053 14.6761 132.317 14.3125C132.584 13.946 132.942 13.6619 133.391 13.4602C133.842 13.2557 134.347 13.1534 134.903 13.1534C135.466 13.1534 135.966 13.2543 136.403 13.456C136.841 13.6548 137.188 13.9276 137.443 14.2741C137.702 14.6207 137.838 15.0142 137.852 15.4545H136.83ZM140.221 24.4545C140.05 24.4545 139.898 24.4403 139.765 24.4119C139.631 24.3864 139.539 24.3608 139.488 24.3352L139.743 23.4489C139.988 23.5114 140.203 23.5341 140.391 23.517C140.578 23.5 140.745 23.4162 140.89 23.2656C141.037 23.1179 141.172 22.8778 141.294 22.5455L141.482 22.0341L139.061 15.4545H140.152L141.959 20.6705H142.027L143.834 15.4545H144.925L142.147 22.9545C142.022 23.2926 141.867 23.5724 141.682 23.794C141.498 24.0185 141.283 24.1847 141.039 24.2926C140.797 24.4006 140.525 24.4545 140.221 24.4545ZM150.889 16.9205L149.985 17.1761C149.929 17.0256 149.845 16.8793 149.734 16.7372C149.626 16.5923 149.478 16.473 149.291 16.3793C149.103 16.2855 148.863 16.2386 148.571 16.2386C148.17 16.2386 147.836 16.331 147.569 16.5156C147.305 16.6974 147.173 16.929 147.173 17.2102C147.173 17.4602 147.264 17.6577 147.446 17.8026C147.627 17.9474 147.912 18.0682 148.298 18.1648L149.27 18.4034C149.855 18.5455 150.291 18.7628 150.578 19.0554C150.865 19.3452 151.008 19.7187 151.008 20.1761C151.008 20.5511 150.9 20.8864 150.684 21.1818C150.471 21.4773 150.173 21.7102 149.789 21.8807C149.406 22.0511 148.96 22.1364 148.451 22.1364C147.784 22.1364 147.231 21.9915 146.794 21.7017C146.356 21.4119 146.079 20.9886 145.963 20.4318L146.917 20.1932C147.008 20.5455 147.18 20.8097 147.433 20.9858C147.689 21.1619 148.022 21.25 148.434 21.25C148.903 21.25 149.275 21.1506 149.551 20.9517C149.829 20.75 149.968 20.5085 149.968 20.2273C149.968 20 149.889 19.8097 149.73 19.6562C149.571 19.5 149.326 19.3835 148.997 19.3068L147.906 19.0511C147.306 18.9091 146.866 18.6889 146.585 18.3906C146.306 18.0895 146.167 17.7131 146.167 17.2614C146.167 16.892 146.271 16.5653 146.478 16.2812C146.689 15.9972 146.974 15.7741 147.335 15.6122C147.699 15.4503 148.11 15.3693 148.571 15.3693C149.218 15.3693 149.727 15.5114 150.096 15.7955C150.468 16.0795 150.733 16.4545 150.889 16.9205ZM155.369 15.4545V16.3068H151.977V15.4545H155.369ZM152.965 13.8864H153.971V20.125C153.971 20.4091 154.012 20.6222 154.094 20.7642C154.18 20.9034 154.288 20.9972 154.418 21.0455C154.552 21.0909 154.692 21.1136 154.84 21.1136C154.951 21.1136 155.042 21.108 155.113 21.0966C155.184 21.0824 155.241 21.071 155.283 21.0625L155.488 21.9659C155.42 21.9915 155.325 22.017 155.202 22.0426C155.08 22.071 154.925 22.0852 154.738 22.0852C154.454 22.0852 154.175 22.0241 153.903 21.902C153.633 21.7798 153.408 21.5938 153.229 21.3438C153.053 21.0938 152.965 20.7784 152.965 20.3977V13.8864ZM159.555 22.1364C158.925 22.1364 158.381 21.9972 157.923 21.7188C157.469 21.4375 157.118 21.0455 156.871 20.5426C156.626 20.0369 156.504 19.4489 156.504 18.7784C156.504 18.108 156.626 17.517 156.871 17.0057C157.118 16.4915 157.462 16.0909 157.902 15.804C158.345 15.5142 158.862 15.3693 159.453 15.3693C159.794 15.3693 160.131 15.4261 160.463 15.5398C160.795 15.6534 161.098 15.8381 161.371 16.0938C161.643 16.3466 161.861 16.6818 162.023 17.0994C162.185 17.517 162.266 18.0312 162.266 18.642V19.0682H157.22V18.1989H161.243C161.243 17.8295 161.169 17.5 161.021 17.2102C160.876 16.9205 160.669 16.6918 160.399 16.5241C160.132 16.3565 159.817 16.2727 159.453 16.2727C159.053 16.2727 158.706 16.3722 158.413 16.571C158.124 16.767 157.901 17.0227 157.744 17.3381C157.588 17.6534 157.51 17.9915 157.51 18.3523V18.9318C157.51 19.4261 157.595 19.8452 157.766 20.1889C157.939 20.5298 158.179 20.7898 158.486 20.9688C158.793 21.1449 159.149 21.233 159.555 21.233C159.82 21.233 160.058 21.196 160.271 21.1222C160.487 21.0455 160.673 20.9318 160.83 20.7812C160.986 20.6278 161.107 20.4375 161.192 20.2102L162.163 20.483C162.061 20.8125 161.889 21.1023 161.648 21.3523C161.406 21.5994 161.108 21.7926 160.753 21.9318C160.398 22.0682 159.999 22.1364 159.555 22.1364ZM163.795 22V15.4545H164.767V16.4773H164.852C164.989 16.1278 165.209 15.8565 165.513 15.6634C165.817 15.4673 166.182 15.3693 166.608 15.3693C167.04 15.3693 167.399 15.4673 167.686 15.6634C167.976 15.8565 168.202 16.1278 168.364 16.4773H168.432C168.599 16.1392 168.851 15.8707 169.186 15.6719C169.521 15.4702 169.923 15.3693 170.392 15.3693C170.977 15.3693 171.456 15.5526 171.828 15.919C172.2 16.2827 172.386 16.8494 172.386 17.6193V22H171.381V17.6193C171.381 17.1364 171.249 16.7912 170.984 16.5838C170.72 16.3764 170.409 16.2727 170.051 16.2727C169.591 16.2727 169.234 16.4119 168.982 16.6903C168.729 16.9659 168.602 17.3153 168.602 17.7386V22H167.58V17.517C167.58 17.1449 167.459 16.8452 167.217 16.6179C166.976 16.3878 166.665 16.2727 166.284 16.2727C166.023 16.2727 165.778 16.3423 165.551 16.4815C165.327 16.6207 165.145 16.8139 165.006 17.0611C164.869 17.3054 164.801 17.5881 164.801 17.9091V22H163.795Z" fill="black"/>
<path d="M33.0568 140V131.273H38.3239V132.21H34.1136V135.159H38.0511V136.097H34.1136V139.062H38.392V140H33.0568ZM41.098 136.062V140H40.0923V133.455H41.0639V134.477H41.1491C41.3026 134.145 41.5355 133.878 41.848 133.676C42.1605 133.472 42.5639 133.369 43.0582 133.369C43.5014 133.369 43.8892 133.46 44.2216 133.642C44.554 133.821 44.8125 134.094 44.9972 134.46C45.1818 134.824 45.2741 135.284 45.2741 135.841V140H44.2685V135.909C44.2685 135.395 44.1349 134.994 43.8679 134.707C43.6009 134.418 43.2344 134.273 42.7685 134.273C42.4474 134.273 42.1605 134.342 41.9077 134.482C41.6577 134.621 41.4602 134.824 41.3153 135.091C41.1705 135.358 41.098 135.682 41.098 136.062ZM49.9585 133.455V134.307H46.5664V133.455H49.9585ZM47.555 131.886H48.5607V138.125C48.5607 138.409 48.6019 138.622 48.6843 138.764C48.7695 138.903 48.8775 138.997 49.0082 139.045C49.1417 139.091 49.2823 139.114 49.43 139.114C49.5408 139.114 49.6317 139.108 49.7028 139.097C49.7738 139.082 49.8306 139.071 49.8732 139.062L50.0778 139.966C50.0096 139.991 49.9144 140.017 49.7923 140.043C49.6701 140.071 49.5153 140.085 49.3278 140.085C49.0437 140.085 48.7653 140.024 48.4925 139.902C48.2227 139.78 47.9982 139.594 47.8192 139.344C47.6431 139.094 47.555 138.778 47.555 138.398V131.886ZM51.4712 140V133.455H52.4769V140H51.4712ZM51.9826 132.364C51.7866 132.364 51.6175 132.297 51.4755 132.163C51.3363 132.03 51.2667 131.869 51.2667 131.682C51.2667 131.494 51.3363 131.334 51.4755 131.2C51.6175 131.067 51.7866 131 51.9826 131C52.1786 131 52.3462 131.067 52.4854 131.2C52.6275 131.334 52.6985 131.494 52.6985 131.682C52.6985 131.869 52.6275 132.03 52.4854 132.163C52.3462 132.297 52.1786 132.364 51.9826 132.364ZM57.1655 133.455V134.307H53.7734V133.455H57.1655ZM54.7621 131.886H55.7678V138.125C55.7678 138.409 55.8089 138.622 55.8913 138.764C55.9766 138.903 56.0845 138.997 56.2152 139.045C56.3487 139.091 56.4893 139.114 56.6371 139.114C56.7479 139.114 56.8388 139.108 56.9098 139.097C56.9808 139.082 57.0376 139.071 57.0803 139.062L57.2848 139.966C57.2166 139.991 57.1214 140.017 56.9993 140.043C56.8771 140.071 56.7223 140.085 56.5348 140.085C56.2507 140.085 55.9723 140.024 55.6996 139.902C55.4297 139.78 55.2053 139.594 55.0263 139.344C54.8501 139.094 54.7621 138.778 54.7621 138.398V131.886ZM59.326 142.455C59.1555 142.455 59.0036 142.44 58.87 142.412C58.7365 142.386 58.6442 142.361 58.593 142.335L58.8487 141.449C59.093 141.511 59.3089 141.534 59.4964 141.517C59.6839 141.5 59.8501 141.416 59.995 141.266C60.1428 141.118 60.2777 140.878 60.3999 140.545L60.5874 140.034L58.1669 133.455H59.2578L61.0646 138.67H61.1328L62.9396 133.455H64.0305L61.2521 140.955C61.1271 141.293 60.9723 141.572 60.7876 141.794C60.603 142.018 60.3885 142.185 60.1442 142.293C59.9027 142.401 59.63 142.455 59.326 142.455ZM69.9261 131.273V140H68.8693V131.273H69.9261ZM72.9144 136.062V140H71.9087V133.455H72.8803V134.477H72.9656C73.119 134.145 73.3519 133.878 73.6644 133.676C73.9769 133.472 74.3803 133.369 74.8746 133.369C75.3178 133.369 75.7056 133.46 76.038 133.642C76.3704 133.821 76.6289 134.094 76.8136 134.46C76.9982 134.824 77.0906 135.284 77.0906 135.841V140H76.0849V135.909C76.0849 135.395 75.9513 134.994 75.6843 134.707C75.4173 134.418 75.0508 134.273 74.5849 134.273C74.2638 134.273 73.9769 134.342 73.7241 134.482C73.4741 134.621 73.2766 134.824 73.1317 135.091C72.9869 135.358 72.9144 135.682 72.9144 136.062ZM81.3999 140.136C80.8544 140.136 80.3729 139.999 79.9553 139.723C79.5376 139.445 79.2109 139.053 78.9751 138.547C78.7393 138.038 78.6214 137.438 78.6214 136.744C78.6214 136.057 78.7393 135.46 78.9751 134.955C79.2109 134.449 79.5391 134.058 79.9595 133.783C80.38 133.507 80.8658 133.369 81.4169 133.369C81.843 133.369 82.1797 133.44 82.4268 133.582C82.6768 133.722 82.8672 133.881 82.9979 134.06C83.1314 134.236 83.2351 134.381 83.3089 134.494H83.3942V131.273H84.3999V140H83.4283V138.994H83.3089C83.2351 139.114 83.13 139.264 82.9936 139.446C82.8572 139.625 82.6626 139.786 82.4098 139.928C82.157 140.067 81.8203 140.136 81.3999 140.136ZM81.5362 139.233C81.9396 139.233 82.2805 139.128 82.5589 138.918C82.8374 138.705 83.049 138.411 83.1939 138.036C83.3388 137.658 83.4112 137.222 83.4112 136.727C83.4112 136.239 83.3402 135.811 83.1982 135.445C83.0561 135.075 82.8459 134.788 82.5675 134.584C82.2891 134.376 81.9453 134.273 81.5362 134.273C81.1101 134.273 80.755 134.382 80.4709 134.601C80.1896 134.817 79.978 135.111 79.8359 135.483C79.6967 135.852 79.6271 136.267 79.6271 136.727C79.6271 137.193 79.6982 137.616 79.8402 137.997C79.9851 138.375 80.1982 138.676 80.4794 138.901C80.7635 139.122 81.1158 139.233 81.5362 139.233ZM89.1257 140.136C88.495 140.136 87.951 139.997 87.4936 139.719C87.0391 139.438 86.6882 139.045 86.4411 138.543C86.1967 138.037 86.0746 137.449 86.0746 136.778C86.0746 136.108 86.1967 135.517 86.4411 135.006C86.6882 134.491 87.032 134.091 87.4723 133.804C87.9155 133.514 88.4325 133.369 89.0234 133.369C89.3643 133.369 89.701 133.426 90.0334 133.54C90.3658 133.653 90.6683 133.838 90.9411 134.094C91.2138 134.347 91.4311 134.682 91.593 135.099C91.755 135.517 91.8359 136.031 91.8359 136.642V137.068H86.7905V136.199H90.8132C90.8132 135.83 90.7393 135.5 90.5916 135.21C90.4467 134.92 90.2393 134.692 89.9695 134.524C89.7024 134.357 89.3871 134.273 89.0234 134.273C88.6229 134.273 88.2763 134.372 87.9837 134.571C87.6939 134.767 87.4709 135.023 87.3146 135.338C87.1584 135.653 87.0803 135.991 87.0803 136.352V136.932C87.0803 137.426 87.1655 137.845 87.3359 138.189C87.5092 138.53 87.7493 138.79 88.0561 138.969C88.3629 139.145 88.7195 139.233 89.1257 139.233C89.3899 139.233 89.6286 139.196 89.8416 139.122C90.0575 139.045 90.2436 138.932 90.3999 138.781C90.5561 138.628 90.6768 138.437 90.7621 138.21L91.7337 138.483C91.6314 138.812 91.4595 139.102 91.218 139.352C90.9766 139.599 90.6783 139.793 90.3232 139.932C89.968 140.068 89.5689 140.136 89.1257 140.136ZM93.94 133.455L95.5082 136.131L97.0763 133.455H98.2354L96.1218 136.727L98.2354 140H97.0763L95.5082 137.46L93.94 140H92.7809L94.8604 136.727L92.7809 133.455H93.94Z" fill="black"/>
<circle cx="28" cy="29" r="5" fill="black"/>
<circle cx="125" cy="29" r="5" fill="black"/>
<circle cx="27" cy="125" r="5" fill="black"/>
<path d="M132.057 140V131.273H137.324V132.21H133.114V135.159H137.051V136.097H133.114V139.062H137.392V140H132.057ZM140.098 136.062V140H139.092V133.455H140.064V134.477H140.149C140.303 134.145 140.536 133.878 140.848 133.676C141.161 133.472 141.564 133.369 142.058 133.369C142.501 133.369 142.889 133.46 143.222 133.642C143.554 133.821 143.813 134.094 143.997 134.46C144.182 134.824 144.274 135.284 144.274 135.841V140H143.268V135.909C143.268 135.395 143.135 134.994 142.868 134.707C142.601 134.418 142.234 134.273 141.768 134.273C141.447 134.273 141.161 134.342 140.908 134.482C140.658 134.621 140.46 134.824 140.315 135.091C140.17 135.358 140.098 135.682 140.098 136.062ZM148.958 133.455V134.307H145.566V133.455H148.958ZM146.555 131.886H147.561V138.125C147.561 138.409 147.602 138.622 147.684 138.764C147.77 138.903 147.877 138.997 148.008 139.045C148.142 139.091 148.282 139.114 148.43 139.114C148.541 139.114 148.632 139.108 148.703 139.097C148.774 139.082 148.831 139.071 148.873 139.062L149.078 139.966C149.01 139.991 148.914 140.017 148.792 140.043C148.67 140.071 148.515 140.085 148.328 140.085C148.044 140.085 147.765 140.024 147.493 139.902C147.223 139.78 146.998 139.594 146.819 139.344C146.643 139.094 146.555 138.778 146.555 138.398V131.886ZM150.471 140V133.455H151.477V140H150.471ZM150.983 132.364C150.787 132.364 150.618 132.297 150.475 132.163C150.336 132.03 150.267 131.869 150.267 131.682C150.267 131.494 150.336 131.334 150.475 131.2C150.618 131.067 150.787 131 150.983 131C151.179 131 151.346 131.067 151.485 131.2C151.627 131.334 151.699 131.494 151.699 131.682C151.699 131.869 151.627 132.03 151.485 132.163C151.346 132.297 151.179 132.364 150.983 132.364ZM156.165 133.455V134.307H152.773V133.455H156.165ZM153.762 131.886H154.768V138.125C154.768 138.409 154.809 138.622 154.891 138.764C154.977 138.903 155.085 138.997 155.215 139.045C155.349 139.091 155.489 139.114 155.637 139.114C155.748 139.114 155.839 139.108 155.91 139.097C155.981 139.082 156.038 139.071 156.08 139.062L156.285 139.966C156.217 139.991 156.121 140.017 155.999 140.043C155.877 140.071 155.722 140.085 155.535 140.085C155.251 140.085 154.972 140.024 154.7 139.902C154.43 139.78 154.205 139.594 154.026 139.344C153.85 139.094 153.762 138.778 153.762 138.398V131.886ZM158.326 142.455C158.156 142.455 158.004 142.44 157.87 142.412C157.737 142.386 157.644 142.361 157.593 142.335L157.849 141.449C158.093 141.511 158.309 141.534 158.496 141.517C158.684 141.5 158.85 141.416 158.995 141.266C159.143 141.118 159.278 140.878 159.4 140.545L159.587 140.034L157.167 133.455H158.258L160.065 138.67H160.133L161.94 133.455H163.031L160.252 140.955C160.127 141.293 159.972 141.572 159.788 141.794C159.603 142.018 159.388 142.185 159.144 142.293C158.903 142.401 158.63 142.455 158.326 142.455Z" fill="black"/>
<circle cx="125" cy="125" r="5" fill="black"/>
<path d="M230.415 140H229.307L232.511 131.273H233.602L236.807 140H235.699L233.091 132.653H233.023L230.415 140ZM230.824 136.591H235.29V137.528H230.824V136.591ZM238.03 140V133.455H239.001V134.443H239.07C239.189 134.119 239.405 133.857 239.717 133.655C240.03 133.453 240.382 133.352 240.774 133.352C240.848 133.352 240.94 133.354 241.051 133.357C241.162 133.359 241.246 133.364 241.303 133.369V134.392C241.268 134.384 241.19 134.371 241.068 134.354C240.949 134.334 240.822 134.324 240.689 134.324C240.371 134.324 240.087 134.391 239.837 134.524C239.589 134.655 239.393 134.837 239.249 135.07C239.107 135.3 239.036 135.562 239.036 135.858V140H238.03ZM244.955 140.136C244.341 140.136 243.813 139.991 243.369 139.702C242.926 139.412 242.585 139.013 242.347 138.504C242.108 137.996 241.989 137.415 241.989 136.761C241.989 136.097 242.111 135.51 242.355 135.001C242.602 134.49 242.946 134.091 243.386 133.804C243.83 133.514 244.347 133.369 244.938 133.369C245.398 133.369 245.812 133.455 246.182 133.625C246.551 133.795 246.854 134.034 247.089 134.341C247.325 134.648 247.472 135.006 247.528 135.415H246.523C246.446 135.116 246.276 134.852 246.011 134.622C245.75 134.389 245.398 134.273 244.955 134.273C244.563 134.273 244.219 134.375 243.923 134.58C243.631 134.781 243.402 135.067 243.237 135.436C243.075 135.803 242.994 136.233 242.994 136.727C242.994 137.233 243.074 137.673 243.233 138.048C243.395 138.423 243.622 138.714 243.915 138.922C244.21 139.129 244.557 139.233 244.955 139.233C245.216 139.233 245.453 139.188 245.666 139.097C245.879 139.006 246.06 138.875 246.207 138.705C246.355 138.534 246.46 138.33 246.523 138.091H247.528C247.472 138.477 247.331 138.825 247.107 139.135C246.885 139.442 246.591 139.686 246.224 139.868C245.861 140.047 245.438 140.136 244.955 140.136ZM250.004 136.062V140H248.999V131.273H250.004V134.477H250.089C250.243 134.139 250.473 133.871 250.78 133.672C251.089 133.47 251.501 133.369 252.016 133.369C252.462 133.369 252.852 133.459 253.188 133.638C253.523 133.814 253.783 134.085 253.967 134.452C254.155 134.815 254.249 135.278 254.249 135.841V140H253.243V135.909C253.243 135.389 253.108 134.987 252.838 134.703C252.571 134.416 252.2 134.273 251.726 134.273C251.396 134.273 251.101 134.342 250.839 134.482C250.581 134.621 250.376 134.824 250.226 135.091C250.078 135.358 250.004 135.682 250.004 136.062ZM258.833 140.136C258.202 140.136 257.658 139.997 257.201 139.719C256.746 139.438 256.395 139.045 256.148 138.543C255.904 138.037 255.782 137.449 255.782 136.778C255.782 136.108 255.904 135.517 256.148 135.006C256.395 134.491 256.739 134.091 257.179 133.804C257.623 133.514 258.14 133.369 258.73 133.369C259.071 133.369 259.408 133.426 259.74 133.54C260.073 133.653 260.375 133.838 260.648 134.094C260.921 134.347 261.138 134.682 261.3 135.099C261.462 135.517 261.543 136.031 261.543 136.642V137.068H256.498V136.199H260.52C260.52 135.83 260.446 135.5 260.299 135.21C260.154 134.92 259.946 134.692 259.676 134.524C259.409 134.357 259.094 134.273 258.73 134.273C258.33 134.273 257.983 134.372 257.691 134.571C257.401 134.767 257.178 135.023 257.022 135.338C256.865 135.653 256.787 135.991 256.787 136.352V136.932C256.787 137.426 256.873 137.845 257.043 138.189C257.216 138.53 257.456 138.79 257.763 138.969C258.07 139.145 258.426 139.233 258.833 139.233C259.097 139.233 259.336 139.196 259.549 139.122C259.765 139.045 259.951 138.932 260.107 138.781C260.263 138.628 260.384 138.437 260.469 138.21L261.441 138.483C261.338 138.812 261.167 139.102 260.925 139.352C260.684 139.599 260.385 139.793 260.03 139.932C259.675 140.068 259.276 140.136 258.833 140.136ZM265.919 133.455V134.307H262.527V133.455H265.919ZM263.516 131.886H264.522V138.125C264.522 138.409 264.563 138.622 264.645 138.764C264.73 138.903 264.838 138.997 264.969 139.045C265.103 139.091 265.243 139.114 265.391 139.114C265.502 139.114 265.593 139.108 265.664 139.097C265.735 139.082 265.792 139.071 265.834 139.062L266.039 139.966C265.971 139.991 265.875 140.017 265.753 140.043C265.631 140.071 265.476 140.085 265.289 140.085C265.005 140.085 264.726 140.024 264.453 139.902C264.184 139.78 263.959 139.594 263.78 139.344C263.604 139.094 263.516 138.778 263.516 138.398V131.886ZM268.08 142.455C267.909 142.455 267.757 142.44 267.624 142.412C267.49 142.386 267.398 142.361 267.347 142.335L267.603 141.449C267.847 141.511 268.063 141.534 268.25 141.517C268.438 141.5 268.604 141.416 268.749 141.266C268.897 141.118 269.032 140.878 269.154 140.545L269.341 140.034L266.921 133.455H268.012L269.819 138.67H269.887L271.694 133.455H272.784L270.006 140.955C269.881 141.293 269.726 141.572 269.542 141.794C269.357 142.018 269.142 142.185 268.898 142.293C268.657 142.401 268.384 142.455 268.08 142.455ZM274.112 142.455V133.455H275.083V134.494H275.203C275.277 134.381 275.379 134.236 275.51 134.06C275.643 133.881 275.833 133.722 276.081 133.582C276.331 133.44 276.669 133.369 277.095 133.369C277.646 133.369 278.132 133.507 278.552 133.783C278.973 134.058 279.301 134.449 279.537 134.955C279.772 135.46 279.89 136.057 279.89 136.744C279.89 137.438 279.772 138.038 279.537 138.547C279.301 139.053 278.974 139.445 278.556 139.723C278.139 139.999 277.657 140.136 277.112 140.136C276.691 140.136 276.355 140.067 276.102 139.928C275.849 139.786 275.654 139.625 275.518 139.446C275.382 139.264 275.277 139.114 275.203 138.994H275.118V142.455H274.112ZM275.1 136.727C275.1 137.222 275.173 137.658 275.318 138.036C275.463 138.411 275.674 138.705 275.953 138.918C276.231 139.128 276.572 139.233 276.975 139.233C277.396 139.233 277.747 139.122 278.028 138.901C278.312 138.676 278.525 138.375 278.667 137.997C278.812 137.616 278.885 137.193 278.885 136.727C278.885 136.267 278.814 135.852 278.672 135.483C278.532 135.111 278.321 134.817 278.037 134.601C277.755 134.382 277.402 134.273 276.975 134.273C276.566 134.273 276.223 134.376 275.944 134.584C275.666 134.788 275.456 135.075 275.314 135.445C275.172 135.811 275.1 136.239 275.1 136.727ZM284.169 140.136C283.538 140.136 282.994 139.997 282.537 139.719C282.082 139.438 281.731 139.045 281.484 138.543C281.24 138.037 281.118 137.449 281.118 136.778C281.118 136.108 281.24 135.517 281.484 135.006C281.731 134.491 282.075 134.091 282.515 133.804C282.958 133.514 283.475 133.369 284.066 133.369C284.407 133.369 284.744 133.426 285.076 133.54C285.409 133.653 285.711 133.838 285.984 134.094C286.257 134.347 286.474 134.682 286.636 135.099C286.798 135.517 286.879 136.031 286.879 136.642V137.068H281.833V136.199H285.856C285.856 135.83 285.782 135.5 285.635 135.21C285.49 134.92 285.282 134.692 285.012 134.524C284.745 134.357 284.43 134.273 284.066 134.273C283.666 134.273 283.319 134.372 283.027 134.571C282.737 134.767 282.514 135.023 282.358 135.338C282.201 135.653 282.123 135.991 282.123 136.352V136.932C282.123 137.426 282.208 137.845 282.379 138.189C282.552 138.53 282.792 138.79 283.099 138.969C283.406 139.145 283.762 139.233 284.169 139.233C284.433 139.233 284.672 139.196 284.885 139.122C285.1 139.045 285.287 138.932 285.443 138.781C285.599 138.628 285.72 138.437 285.805 138.21L286.777 138.483C286.674 138.812 286.502 139.102 286.261 139.352C286.02 139.599 285.721 139.793 285.366 139.932C285.011 140.068 284.612 140.136 284.169 140.136Z" fill="black"/>
<path d="M335.08 134H334.023C333.96 133.696 333.851 133.429 333.695 133.199C333.541 132.969 333.354 132.776 333.132 132.619C332.913 132.46 332.67 132.341 332.403 132.261C332.136 132.182 331.858 132.142 331.568 132.142C331.04 132.142 330.561 132.276 330.132 132.543C329.706 132.81 329.366 133.203 329.114 133.723C328.864 134.243 328.739 134.881 328.739 135.636C328.739 136.392 328.864 137.03 329.114 137.55C329.366 138.07 329.706 138.463 330.132 138.73C330.561 138.997 331.04 139.131 331.568 139.131C331.858 139.131 332.136 139.091 332.403 139.011C332.67 138.932 332.913 138.814 333.132 138.658C333.354 138.499 333.541 138.304 333.695 138.074C333.851 137.841 333.96 137.574 334.023 137.273H335.08C335 137.719 334.855 138.118 334.645 138.47C334.435 138.822 334.173 139.122 333.861 139.369C333.548 139.614 333.197 139.8 332.808 139.928C332.422 140.055 332.009 140.119 331.568 140.119C330.824 140.119 330.162 139.938 329.582 139.574C329.003 139.21 328.547 138.693 328.214 138.023C327.882 137.352 327.716 136.557 327.716 135.636C327.716 134.716 327.882 133.92 328.214 133.25C328.547 132.58 329.003 132.062 329.582 131.699C330.162 131.335 330.824 131.153 331.568 131.153C332.009 131.153 332.422 131.217 332.808 131.345C333.197 131.473 333.548 131.661 333.861 131.908C334.173 132.152 334.435 132.45 334.645 132.803C334.855 133.152 335 133.551 335.08 134ZM339.31 140.136C338.719 140.136 338.201 139.996 337.755 139.714C337.311 139.433 336.965 139.04 336.715 138.534C336.468 138.028 336.344 137.437 336.344 136.761C336.344 136.08 336.468 135.484 336.715 134.976C336.965 134.467 337.311 134.072 337.755 133.791C338.201 133.51 338.719 133.369 339.31 133.369C339.901 133.369 340.418 133.51 340.861 133.791C341.307 134.072 341.654 134.467 341.901 134.976C342.151 135.484 342.276 136.08 342.276 136.761C342.276 137.437 342.151 138.028 341.901 138.534C341.654 139.04 341.307 139.433 340.861 139.714C340.418 139.996 339.901 140.136 339.31 140.136ZM339.31 139.233C339.759 139.233 340.128 139.118 340.418 138.888C340.708 138.658 340.922 138.355 341.061 137.98C341.201 137.605 341.27 137.199 341.27 136.761C341.27 136.324 341.201 135.916 341.061 135.538C340.922 135.161 340.708 134.855 340.418 134.622C340.128 134.389 339.759 134.273 339.31 134.273C338.861 134.273 338.492 134.389 338.202 134.622C337.912 134.855 337.698 135.161 337.559 135.538C337.419 135.916 337.35 136.324 337.35 136.761C337.35 137.199 337.419 137.605 337.559 137.98C337.698 138.355 337.912 138.658 338.202 138.888C338.492 139.118 338.861 139.233 339.31 139.233ZM343.811 140V133.455H344.783V134.477H344.868C345.004 134.128 345.224 133.857 345.528 133.663C345.832 133.467 346.197 133.369 346.624 133.369C347.055 133.369 347.415 133.467 347.702 133.663C347.991 133.857 348.217 134.128 348.379 134.477H348.447C348.615 134.139 348.866 133.871 349.202 133.672C349.537 133.47 349.939 133.369 350.408 133.369C350.993 133.369 351.472 133.553 351.844 133.919C352.216 134.283 352.402 134.849 352.402 135.619V140H351.396V135.619C351.396 135.136 351.264 134.791 351 134.584C350.736 134.376 350.425 134.273 350.067 134.273C349.607 134.273 349.25 134.412 348.997 134.69C348.744 134.966 348.618 135.315 348.618 135.739V140H347.595V135.517C347.595 135.145 347.474 134.845 347.233 134.618C346.991 134.388 346.68 134.273 346.3 134.273C346.038 134.273 345.794 134.342 345.567 134.482C345.342 134.621 345.161 134.814 345.021 135.061C344.885 135.305 344.817 135.588 344.817 135.909V140H343.811ZM354.241 142.455V133.455H355.212V134.494H355.332C355.406 134.381 355.508 134.236 355.638 134.06C355.772 133.881 355.962 133.722 356.21 133.582C356.46 133.44 356.798 133.369 357.224 133.369C357.775 133.369 358.261 133.507 358.681 133.783C359.102 134.058 359.43 134.449 359.665 134.955C359.901 135.46 360.019 136.057 360.019 136.744C360.019 137.438 359.901 138.038 359.665 138.547C359.43 139.053 359.103 139.445 358.685 139.723C358.268 139.999 357.786 140.136 357.241 140.136C356.82 140.136 356.484 140.067 356.231 139.928C355.978 139.786 355.783 139.625 355.647 139.446C355.511 139.264 355.406 139.114 355.332 138.994H355.246V142.455H354.241ZM355.229 136.727C355.229 137.222 355.302 137.658 355.447 138.036C355.592 138.411 355.803 138.705 356.082 138.918C356.36 139.128 356.701 139.233 357.104 139.233C357.525 139.233 357.876 139.122 358.157 138.901C358.441 138.676 358.654 138.375 358.796 137.997C358.941 137.616 359.013 137.193 359.013 136.727C359.013 136.267 358.942 135.852 358.8 135.483C358.661 135.111 358.45 134.817 358.165 134.601C357.884 134.382 357.531 134.273 357.104 134.273C356.695 134.273 356.352 134.376 356.073 134.584C355.795 134.788 355.585 135.075 355.442 135.445C355.3 135.811 355.229 136.239 355.229 136.727ZM364.212 140.136C363.621 140.136 363.103 139.996 362.657 139.714C362.214 139.433 361.867 139.04 361.617 138.534C361.37 138.028 361.246 137.437 361.246 136.761C361.246 136.08 361.37 135.484 361.617 134.976C361.867 134.467 362.214 134.072 362.657 133.791C363.103 133.51 363.621 133.369 364.212 133.369C364.803 133.369 365.32 133.51 365.763 133.791C366.21 134.072 366.556 134.467 366.803 134.976C367.053 135.484 367.178 136.08 367.178 136.761C367.178 137.437 367.053 138.028 366.803 138.534C366.556 139.04 366.21 139.433 365.763 139.714C365.32 139.996 364.803 140.136 364.212 140.136ZM364.212 139.233C364.661 139.233 365.031 139.118 365.32 138.888C365.61 138.658 365.825 138.355 365.964 137.98C366.103 137.605 366.173 137.199 366.173 136.761C366.173 136.324 366.103 135.916 365.964 135.538C365.825 135.161 365.61 134.855 365.32 134.622C365.031 134.389 364.661 134.273 364.212 134.273C363.763 134.273 363.394 134.389 363.104 134.622C362.815 134.855 362.6 135.161 362.461 135.538C362.322 135.916 362.252 136.324 362.252 136.761C362.252 137.199 362.322 137.605 362.461 137.98C362.6 138.355 362.815 138.658 363.104 138.888C363.394 139.118 363.763 139.233 364.212 139.233ZM369.719 136.062V140H368.713V133.455H369.685V134.477H369.77C369.924 134.145 370.157 133.878 370.469 133.676C370.782 133.472 371.185 133.369 371.679 133.369C372.123 133.369 372.51 133.46 372.843 133.642C373.175 133.821 373.434 134.094 373.618 134.46C373.803 134.824 373.895 135.284 373.895 135.841V140H372.89V135.909C372.89 135.395 372.756 134.994 372.489 134.707C372.222 134.418 371.855 134.273 371.39 134.273C371.069 134.273 370.782 134.342 370.529 134.482C370.279 134.621 370.081 134.824 369.936 135.091C369.792 135.358 369.719 135.682 369.719 136.062ZM378.477 140.136C377.847 140.136 377.303 139.997 376.845 139.719C376.391 139.438 376.04 139.045 375.793 138.543C375.548 138.037 375.426 137.449 375.426 136.778C375.426 136.108 375.548 135.517 375.793 135.006C376.04 134.491 376.384 134.091 376.824 133.804C377.267 133.514 377.784 133.369 378.375 133.369C378.716 133.369 379.053 133.426 379.385 133.54C379.717 133.653 380.02 133.838 380.293 134.094C380.565 134.347 380.783 134.682 380.945 135.099C381.107 135.517 381.188 136.031 381.188 136.642V137.068H376.142V136.199H380.165C380.165 135.83 380.091 135.5 379.943 135.21C379.798 134.92 379.591 134.692 379.321 134.524C379.054 134.357 378.739 134.273 378.375 134.273C377.974 134.273 377.628 134.372 377.335 134.571C377.045 134.767 376.822 135.023 376.666 135.338C376.51 135.653 376.432 135.991 376.432 136.352V136.932C376.432 137.426 376.517 137.845 376.688 138.189C376.861 138.53 377.101 138.79 377.408 138.969C377.714 139.145 378.071 139.233 378.477 139.233C378.741 139.233 378.98 139.196 379.193 139.122C379.409 139.045 379.595 138.932 379.751 138.781C379.908 138.628 380.028 138.437 380.114 138.21L381.085 138.483C380.983 138.812 380.811 139.102 380.57 139.352C380.328 139.599 380.03 139.793 379.675 139.932C379.32 140.068 378.92 140.136 378.477 140.136ZM383.723 136.062V140H382.717V133.455H383.689V134.477H383.774C383.928 134.145 384.161 133.878 384.473 133.676C384.786 133.472 385.189 133.369 385.683 133.369C386.126 133.369 386.514 133.46 386.847 133.642C387.179 133.821 387.438 134.094 387.622 134.46C387.807 134.824 387.899 135.284 387.899 135.841V140H386.893V135.909C386.893 135.395 386.76 134.994 386.493 134.707C386.226 134.418 385.859 134.273 385.393 134.273C385.072 134.273 384.786 134.342 384.533 134.482C384.283 134.621 384.085 134.824 383.94 135.091C383.795 135.358 383.723 135.682 383.723 136.062ZM392.583 133.455V134.307H389.191V133.455H392.583ZM390.18 131.886H391.186V138.125C391.186 138.409 391.227 138.622 391.309 138.764C391.395 138.903 391.502 138.997 391.633 139.045C391.767 139.091 391.907 139.114 392.055 139.114C392.166 139.114 392.257 139.108 392.328 139.097C392.399 139.082 392.456 139.071 392.498 139.062L392.703 139.966C392.635 139.991 392.539 140.017 392.417 140.043C392.295 140.071 392.14 140.085 391.953 140.085C391.669 140.085 391.39 140.024 391.118 139.902C390.848 139.78 390.623 139.594 390.444 139.344C390.268 139.094 390.18 138.778 390.18 138.398V131.886Z" fill="black"/>
<circle cx="76.5" cy="77.5" r="5.5" fill="black"/>
<path d="M115 29L110 26.1132V31.8868L115 29ZM38 29.5L110.5 29.5V28.5L38 28.5V29.5Z" fill="black"/>
<circle cx="222" cy="125" r="5" fill="black"/>
<path d="M213 125L208 122.113V127.887L213 125ZM134 125.5L208.5 125.5V124.5L134 124.5V125.5Z" fill="black"/>
<circle cx="321" cy="125" r="5" fill="black"/>
<path d="M311 125L306 122.113V127.887L311 125ZM232 125.5L306.5 125.5V124.5L232 124.5V125.5Z" fill="black"/>
<path d="M28 116L30.8868 111H25.1132L28 116ZM27.5 38L27.5 111.5H28.5L28.5 38H27.5Z" fill="black"/>
<path d="M125 116L127.887 111H122.113L125 116ZM124.5 38V111.5H125.5V38H124.5Z" fill="black"/>
<path d="M34.6805 118.931L40.2572 117.436L36.1748 113.354L34.6805 118.931ZM68.9659 83.938L37.5089 115.395L38.216 116.102L69.673 84.6451L68.9659 83.938Z" fill="black"/>
<path d="M84 70.639L89.5768 69.1447L85.4943 65.0622L84 70.639ZM118.285 35.6464L86.8285 67.1035L87.5356 67.8106L118.993 36.3536L118.285 35.6464Z" fill="black"/>
<path d="M312 120L308.775 115.211L306.24 120.398L312 120ZM133.78 33.4492L307.738 118.473L308.177 117.575L134.22 32.5508L133.78 33.4492Z" fill="black"/>
<path d="M116 125L111 122.113V127.887L116 125ZM37 125.5H111.5V124.5H37V125.5Z" fill="black"/>
</svg>
