<svg width="593" height="144" viewBox="0 0 593 144" fill="none" xmlns="http://www.w3.org/2000/svg">
<path d="M7.40909 20V8.36364H14.4318V9.61364H8.81818V13.5455H14.0682V14.7955H8.81818V18.75H14.5227V20H7.40909ZM26.3352 12H24.9261C24.8428 11.5947 24.697 11.2386 24.4886 10.9318C24.2841 10.625 24.0341 10.3674 23.7386 10.1591C23.447 9.94697 23.1231 9.78788 22.767 9.68182C22.411 9.57576 22.0398 9.52273 21.6534 9.52273C20.9489 9.52273 20.3106 9.70076 19.7386 10.0568C19.1705 10.4129 18.7178 10.9375 18.3807 11.6307C18.0473 12.3239 17.8807 13.1742 17.8807 14.1818C17.8807 15.1894 18.0473 16.0398 18.3807 16.733C18.7178 17.4261 19.1705 17.9508 19.7386 18.3068C20.3106 18.6629 20.9489 18.8409 21.6534 18.8409C22.0398 18.8409 22.411 18.7879 22.767 18.6818C23.1231 18.5758 23.447 18.4186 23.7386 18.2102C24.0341 17.9981 24.2841 17.7386 24.4886 17.4318C24.697 17.1212 24.8428 16.7652 24.9261 16.3636H26.3352C26.2292 16.9583 26.036 17.4905 25.7557 17.9602C25.4754 18.4299 25.1269 18.8295 24.7102 19.1591C24.2936 19.4848 23.8258 19.733 23.3068 19.9034C22.7917 20.0739 22.2405 20.1591 21.6534 20.1591C20.661 20.1591 19.7784 19.9167 19.0057 19.4318C18.233 18.947 17.625 18.2576 17.1818 17.3636C16.7386 16.4697 16.517 15.4091 16.517 14.1818C16.517 12.9545 16.7386 11.8939 17.1818 11C17.625 10.1061 18.233 9.41667 19.0057 8.93182C19.7784 8.44697 20.661 8.20455 21.6534 8.20455C22.2405 8.20455 22.7917 8.28977 23.3068 8.46023C23.8258 8.63068 24.2936 8.88068 24.7102 9.21023C25.1269 9.53598 25.4754 9.93371 25.7557 10.4034C26.036 10.8693 26.2292 11.4015 26.3352 12ZM34.9759 11.2727C34.9077 10.697 34.6312 10.25 34.1463 9.93182C33.6615 9.61364 33.0668 9.45455 32.3622 9.45455C31.8471 9.45455 31.3963 9.53788 31.0099 9.70455C30.6274 9.87121 30.3281 10.1004 30.1122 10.392C29.9001 10.6837 29.794 11.0152 29.794 11.3864C29.794 11.697 29.8679 11.964 30.0156 12.1875C30.1671 12.4072 30.3603 12.5909 30.5952 12.7386C30.83 12.8826 31.0762 13.0019 31.3338 13.0966C31.5914 13.1875 31.8281 13.2614 32.044 13.3182L33.2259 13.6364C33.5289 13.7159 33.866 13.8258 34.2372 13.9659C34.6122 14.1061 34.9702 14.2973 35.3111 14.5398C35.6558 14.7784 35.9399 15.0852 36.1634 15.4602C36.3868 15.8352 36.4986 16.2955 36.4986 16.8409C36.4986 17.4697 36.3338 18.0379 36.0043 18.5455C35.6785 19.053 35.2012 19.4564 34.5724 19.7557C33.9474 20.0549 33.188 20.2045 32.294 20.2045C31.4607 20.2045 30.7391 20.0701 30.1293 19.8011C29.5232 19.5322 29.0459 19.1572 28.6974 18.6761C28.3527 18.1951 28.1577 17.6364 28.1122 17H29.5668C29.6046 17.4394 29.7524 17.803 30.0099 18.0909C30.2713 18.375 30.6009 18.5871 30.9986 18.7273C31.4001 18.8636 31.8319 18.9318 32.294 18.9318C32.8319 18.9318 33.3149 18.8447 33.7429 18.6705C34.1709 18.4924 34.5099 18.2462 34.7599 17.9318C35.0099 17.6136 35.1349 17.2424 35.1349 16.8182C35.1349 16.4318 35.027 16.1174 34.8111 15.875C34.5952 15.6326 34.3111 15.4356 33.9588 15.2841C33.6065 15.1326 33.2259 15 32.8168 14.8864L31.3849 14.4773C30.4759 14.2159 29.7562 13.8428 29.2259 13.358C28.6955 12.8731 28.4304 12.2386 28.4304 11.4545C28.4304 10.803 28.6065 10.2348 28.9588 9.75C29.3149 9.26136 29.7921 8.88258 30.3906 8.61364C30.9929 8.34091 31.6652 8.20455 32.4077 8.20455C33.1577 8.20455 33.8243 8.33901 34.4077 8.60795C34.991 8.87311 35.4531 9.23674 35.794 9.69886C36.1387 10.161 36.3205 10.6856 36.3395 11.2727H34.9759Z" fill="black"/>
<path d="M173.773 11.2727C173.705 10.697 173.428 10.25 172.943 9.93182C172.458 9.61364 171.864 9.45455 171.159 9.45455C170.644 9.45455 170.193 9.53788 169.807 9.70455C169.424 9.87121 169.125 10.1004 168.909 10.392C168.697 10.6837 168.591 11.0152 168.591 11.3864C168.591 11.697 168.665 11.964 168.812 12.1875C168.964 12.4072 169.157 12.5909 169.392 12.7386C169.627 12.8826 169.873 13.0019 170.131 13.0966C170.388 13.1875 170.625 13.2614 170.841 13.3182L172.023 13.6364C172.326 13.7159 172.663 13.8258 173.034 13.9659C173.409 14.1061 173.767 14.2973 174.108 14.5398C174.453 14.7784 174.737 15.0852 174.96 15.4602C175.184 15.8352 175.295 16.2955 175.295 16.8409C175.295 17.4697 175.131 18.0379 174.801 18.5455C174.475 19.053 173.998 19.4564 173.369 19.7557C172.744 20.0549 171.985 20.2045 171.091 20.2045C170.258 20.2045 169.536 20.0701 168.926 19.8011C168.32 19.5322 167.843 19.1572 167.494 18.6761C167.15 18.1951 166.955 17.6364 166.909 17H168.364C168.402 17.4394 168.549 17.803 168.807 18.0909C169.068 18.375 169.398 18.5871 169.795 18.7273C170.197 18.8636 170.629 18.9318 171.091 18.9318C171.629 18.9318 172.112 18.8447 172.54 18.6705C172.968 18.4924 173.307 18.2462 173.557 17.9318C173.807 17.6136 173.932 17.2424 173.932 16.8182C173.932 16.4318 173.824 16.1174 173.608 15.875C173.392 15.6326 173.108 15.4356 172.756 15.2841C172.403 15.1326 172.023 15 171.614 14.8864L170.182 14.4773C169.273 14.2159 168.553 13.8428 168.023 13.358C167.492 12.8731 167.227 12.2386 167.227 11.4545C167.227 10.803 167.403 10.2348 167.756 9.75C168.112 9.26136 168.589 8.88258 169.188 8.61364C169.79 8.34091 170.462 8.20455 171.205 8.20455C171.955 8.20455 172.621 8.33901 173.205 8.60795C173.788 8.87311 174.25 9.23674 174.591 9.69886C174.936 10.161 175.117 10.6856 175.136 11.2727H173.773ZM178.294 23.2727C178.067 23.2727 177.864 23.2538 177.686 23.2159C177.508 23.1818 177.385 23.1477 177.317 23.1136L177.658 21.9318C177.983 22.0152 178.271 22.0455 178.521 22.0227C178.771 22 178.993 21.8883 179.186 21.6875C179.383 21.4905 179.563 21.1705 179.726 20.7273L179.976 20.0455L176.749 11.2727H178.203L180.612 18.2273H180.703L183.112 11.2727H184.567L180.862 21.2727C180.696 21.7235 180.489 22.0966 180.243 22.392C179.997 22.6913 179.711 22.9129 179.385 23.0568C179.063 23.2008 178.699 23.2727 178.294 23.2727ZM192.518 13.2273L191.314 13.5682C191.238 13.3674 191.126 13.1723 190.979 12.983C190.835 12.7898 190.638 12.6307 190.388 12.5057C190.138 12.3807 189.818 12.3182 189.428 12.3182C188.893 12.3182 188.448 12.4413 188.092 12.6875C187.74 12.9299 187.564 13.2386 187.564 13.6136C187.564 13.947 187.685 14.2102 187.928 14.4034C188.17 14.5966 188.549 14.7576 189.064 14.8864L190.359 15.2045C191.14 15.3939 191.721 15.6837 192.104 16.0739C192.486 16.4602 192.678 16.9583 192.678 17.5682C192.678 18.0682 192.534 18.5152 192.246 18.9091C191.962 19.303 191.564 19.6136 191.053 19.8409C190.541 20.0682 189.946 20.1818 189.268 20.1818C188.378 20.1818 187.642 19.9886 187.058 19.6023C186.475 19.2159 186.106 18.6515 185.95 17.9091L187.223 17.5909C187.344 18.0606 187.573 18.4129 187.911 18.6477C188.251 18.8826 188.696 19 189.246 19C189.871 19 190.367 18.8674 190.734 18.6023C191.106 18.3333 191.291 18.0114 191.291 17.6364C191.291 17.3333 191.185 17.0795 190.973 16.875C190.761 16.6667 190.435 16.5114 189.996 16.4091L188.541 16.0682C187.742 15.8788 187.155 15.5852 186.78 15.1875C186.409 14.786 186.223 14.2841 186.223 13.6818C186.223 13.1894 186.361 12.7538 186.638 12.375C186.918 11.9962 187.299 11.6989 187.78 11.483C188.265 11.267 188.814 11.1591 189.428 11.1591C190.291 11.1591 190.969 11.3485 191.462 11.7273C191.958 12.1061 192.31 12.6061 192.518 13.2273ZM198.491 11.2727V12.4091H193.969V11.2727H198.491ZM195.287 9.18182H196.628V17.5C196.628 17.8788 196.683 18.1629 196.793 18.3523C196.906 18.5379 197.05 18.6629 197.224 18.7273C197.402 18.7879 197.59 18.8182 197.787 18.8182C197.935 18.8182 198.056 18.8106 198.151 18.7955C198.245 18.7765 198.321 18.7614 198.378 18.75L198.651 19.9545C198.56 19.9886 198.433 20.0227 198.27 20.0568C198.107 20.0947 197.901 20.1136 197.651 20.1136C197.272 20.1136 196.901 20.0322 196.537 19.8693C196.177 19.7064 195.878 19.4583 195.639 19.125C195.404 18.7917 195.287 18.3712 195.287 17.8636V9.18182ZM204.074 20.1818C203.233 20.1818 202.508 19.9962 201.898 19.625C201.292 19.25 200.824 18.7273 200.494 18.0568C200.169 17.3826 200.006 16.5985 200.006 15.7045C200.006 14.8106 200.169 14.0227 200.494 13.3409C200.824 12.6553 201.282 12.1212 201.869 11.7386C202.46 11.3523 203.15 11.1591 203.938 11.1591C204.392 11.1591 204.841 11.2348 205.284 11.3864C205.727 11.5379 206.131 11.7841 206.494 12.125C206.858 12.4621 207.148 12.9091 207.364 13.4659C207.58 14.0227 207.688 14.7083 207.688 15.5227V16.0909H200.96V14.9318H206.324C206.324 14.4394 206.225 14 206.028 13.6136C205.835 13.2273 205.559 12.9223 205.199 12.6989C204.843 12.4754 204.422 12.3636 203.938 12.3636C203.403 12.3636 202.941 12.4962 202.551 12.7614C202.165 13.0227 201.867 13.3636 201.659 13.7841C201.451 14.2045 201.347 14.6553 201.347 15.1364V15.9091C201.347 16.5682 201.46 17.1269 201.688 17.5852C201.919 18.0398 202.239 18.3864 202.648 18.625C203.057 18.8598 203.532 18.9773 204.074 18.9773C204.426 18.9773 204.744 18.928 205.028 18.8295C205.316 18.7273 205.564 18.5758 205.773 18.375C205.981 18.1705 206.142 17.9167 206.256 17.6136L207.551 17.9773C207.415 18.4167 207.186 18.803 206.864 19.1364C206.542 19.4659 206.144 19.7235 205.67 19.9091C205.197 20.0909 204.665 20.1818 204.074 20.1818ZM209.727 20V11.2727H211.023V12.6364H211.136C211.318 12.1705 211.612 11.8087 212.017 11.5511C212.422 11.2898 212.909 11.1591 213.477 11.1591C214.053 11.1591 214.532 11.2898 214.915 11.5511C215.301 11.8087 215.602 12.1705 215.818 12.6364H215.909C216.133 12.1856 216.468 11.8277 216.915 11.5625C217.362 11.2936 217.898 11.1591 218.523 11.1591C219.303 11.1591 219.941 11.4034 220.438 11.892C220.934 12.3769 221.182 13.1326 221.182 14.1591V20H219.841V14.1591C219.841 13.5152 219.665 13.0549 219.312 12.7784C218.96 12.5019 218.545 12.3636 218.068 12.3636C217.455 12.3636 216.979 12.5492 216.642 12.9205C216.305 13.2879 216.136 13.7538 216.136 14.3182V20H214.773V14.0227C214.773 13.5265 214.612 13.1269 214.29 12.8239C213.968 12.517 213.553 12.3636 213.045 12.3636C212.697 12.3636 212.371 12.4564 212.068 12.642C211.769 12.8277 211.527 13.0852 211.341 13.4148C211.159 13.7405 211.068 14.1174 211.068 14.5455V20H209.727Z" fill="black"/>
<path d="M7.40909 138V126.364H14.4318V127.614H8.81818V131.545H14.0682V132.795H8.81818V136.75H14.5227V138H7.40909ZM18.1307 132.75V138H16.7898V129.273H18.0852V130.636H18.1989C18.4034 130.193 18.714 129.837 19.1307 129.568C19.5473 129.295 20.0852 129.159 20.7443 129.159C21.3352 129.159 21.8523 129.28 22.2955 129.523C22.7386 129.761 23.0833 130.125 23.3295 130.614C23.5758 131.098 23.6989 131.712 23.6989 132.455V138H22.358V132.545C22.358 131.86 22.1799 131.326 21.8239 130.943C21.4678 130.557 20.9792 130.364 20.358 130.364C19.9299 130.364 19.5473 130.456 19.2102 130.642C18.8769 130.828 18.6136 131.098 18.4205 131.455C18.2273 131.811 18.1307 132.242 18.1307 132.75ZM29.9446 129.273V130.409H25.4219V129.273H29.9446ZM26.7401 127.182H28.081V135.5C28.081 135.879 28.1359 136.163 28.2457 136.352C28.3594 136.538 28.5033 136.663 28.6776 136.727C28.8556 136.788 29.0431 136.818 29.2401 136.818C29.3878 136.818 29.509 136.811 29.6037 136.795C29.6984 136.777 29.7741 136.761 29.831 136.75L30.1037 137.955C30.0128 137.989 29.8859 138.023 29.723 138.057C29.5601 138.095 29.3537 138.114 29.1037 138.114C28.7249 138.114 28.3537 138.032 27.9901 137.869C27.6302 137.706 27.331 137.458 27.0923 137.125C26.8575 136.792 26.7401 136.371 26.7401 135.864V127.182ZM31.9616 138V129.273H33.3026V138H31.9616ZM32.6435 127.818C32.3821 127.818 32.1567 127.729 31.9673 127.551C31.7817 127.373 31.6889 127.159 31.6889 126.909C31.6889 126.659 31.7817 126.445 31.9673 126.267C32.1567 126.089 32.3821 126 32.6435 126C32.9048 126 33.1283 126.089 33.3139 126.267C33.5033 126.445 33.598 126.659 33.598 126.909C33.598 127.159 33.5033 127.373 33.3139 127.551C33.1283 127.729 32.9048 127.818 32.6435 127.818ZM39.554 129.273V130.409H35.0312V129.273H39.554ZM36.3494 127.182H37.6903V135.5C37.6903 135.879 37.7453 136.163 37.8551 136.352C37.9688 136.538 38.1127 136.663 38.2869 136.727C38.465 136.788 38.6525 136.818 38.8494 136.818C38.9972 136.818 39.1184 136.811 39.2131 136.795C39.3078 136.777 39.3835 136.761 39.4403 136.75L39.7131 137.955C39.6222 137.989 39.4953 138.023 39.3324 138.057C39.1695 138.095 38.9631 138.114 38.7131 138.114C38.3343 138.114 37.9631 138.032 37.5994 137.869C37.2396 137.706 36.9403 137.458 36.7017 137.125C36.4669 136.792 36.3494 136.371 36.3494 135.864V127.182ZM42.4347 141.273C42.2074 141.273 42.0047 141.254 41.8267 141.216C41.6487 141.182 41.5256 141.148 41.4574 141.114L41.7983 139.932C42.1241 140.015 42.4119 140.045 42.6619 140.023C42.9119 140 43.1335 139.888 43.3267 139.688C43.5237 139.491 43.7036 139.17 43.8665 138.727L44.1165 138.045L40.8892 129.273H42.3438L44.7528 136.227H44.8438L47.2528 129.273H48.7074L45.0028 139.273C44.8362 139.723 44.6297 140.097 44.3835 140.392C44.1373 140.691 43.8513 140.913 43.5256 141.057C43.2036 141.201 42.84 141.273 42.4347 141.273ZM56.5682 126.364V138H55.1591V126.364H56.5682ZM60.5526 132.75V138H59.2116V129.273H60.5071V130.636H60.6207C60.8253 130.193 61.1359 129.837 61.5526 129.568C61.9692 129.295 62.5071 129.159 63.1662 129.159C63.7571 129.159 64.2741 129.28 64.7173 129.523C65.1605 129.761 65.5052 130.125 65.7514 130.614C65.9976 131.098 66.1207 131.712 66.1207 132.455V138H64.7798V132.545C64.7798 131.86 64.6018 131.326 64.2457 130.943C63.8897 130.557 63.401 130.364 62.7798 130.364C62.3518 130.364 61.9692 130.456 61.6321 130.642C61.2988 130.828 61.0355 131.098 60.8423 131.455C60.6491 131.811 60.5526 132.242 60.5526 132.75ZM71.8665 138.182C71.1392 138.182 70.4972 137.998 69.9403 137.631C69.3835 137.259 68.9479 136.737 68.6335 136.062C68.3191 135.384 68.1619 134.583 68.1619 133.659C68.1619 132.742 68.3191 131.947 68.6335 131.273C68.9479 130.598 69.3854 130.078 69.946 129.71C70.5066 129.343 71.1544 129.159 71.8892 129.159C72.4574 129.159 72.9063 129.254 73.2358 129.443C73.5691 129.629 73.8229 129.841 73.9972 130.08C74.1752 130.314 74.3134 130.508 74.4119 130.659H74.5256V126.364H75.8665V138H74.571V136.659H74.4119C74.3134 136.818 74.1733 137.019 73.9915 137.261C73.8097 137.5 73.5502 137.714 73.2131 137.903C72.8759 138.089 72.4271 138.182 71.8665 138.182ZM72.0483 136.977C72.5862 136.977 73.0407 136.837 73.4119 136.557C73.7831 136.273 74.0653 135.881 74.2585 135.381C74.4517 134.877 74.5483 134.295 74.5483 133.636C74.5483 132.985 74.4536 132.415 74.2642 131.926C74.0748 131.434 73.7945 131.051 73.4233 130.778C73.0521 130.502 72.5938 130.364 72.0483 130.364C71.4801 130.364 71.0066 130.509 70.6278 130.801C70.2528 131.089 69.9706 131.481 69.7812 131.977C69.5956 132.47 69.5028 133.023 69.5028 133.636C69.5028 134.258 69.5975 134.822 69.7869 135.33C69.9801 135.833 70.2642 136.235 70.6392 136.534C71.018 136.83 71.4877 136.977 72.0483 136.977ZM82.1676 138.182C81.3267 138.182 80.6013 137.996 79.9915 137.625C79.3854 137.25 78.9176 136.727 78.5881 136.057C78.2623 135.383 78.0994 134.598 78.0994 133.705C78.0994 132.811 78.2623 132.023 78.5881 131.341C78.9176 130.655 79.3759 130.121 79.9631 129.739C80.554 129.352 81.2434 129.159 82.0312 129.159C82.4858 129.159 82.9347 129.235 83.3778 129.386C83.821 129.538 84.2244 129.784 84.5881 130.125C84.9517 130.462 85.2415 130.909 85.4574 131.466C85.6733 132.023 85.7812 132.708 85.7812 133.523V134.091H79.054V132.932H84.4176C84.4176 132.439 84.3191 132 84.1222 131.614C83.929 131.227 83.6525 130.922 83.2926 130.699C82.9366 130.475 82.5161 130.364 82.0312 130.364C81.4972 130.364 81.035 130.496 80.6449 130.761C80.2585 131.023 79.9612 131.364 79.7528 131.784C79.5445 132.205 79.4403 132.655 79.4403 133.136V133.909C79.4403 134.568 79.554 135.127 79.7812 135.585C80.0123 136.04 80.3324 136.386 80.7415 136.625C81.1506 136.86 81.6259 136.977 82.1676 136.977C82.5199 136.977 82.8381 136.928 83.1222 136.83C83.41 136.727 83.6581 136.576 83.8665 136.375C84.0748 136.17 84.2358 135.917 84.3494 135.614L85.6449 135.977C85.5085 136.417 85.2794 136.803 84.9574 137.136C84.6354 137.466 84.2377 137.723 83.7642 137.909C83.2907 138.091 82.7585 138.182 82.1676 138.182ZM88.5866 129.273L90.6776 132.841L92.7685 129.273H94.3139L91.4957 133.636L94.3139 138H92.7685L90.6776 134.614L88.5866 138H87.0412L89.8139 133.636L87.0412 129.273H88.5866Z" fill="black"/>
<path d="M84.6364 77.3636H86.1818L87.4773 79.0682L87.8182 79.5227L89.75 82.0909H88.2045L86.9318 80.3864L86.6136 79.9545L84.6364 77.3636ZM90.2273 75.1818C90.2273 76.4091 90.0057 77.4697 89.5625 78.3636C89.1193 79.2576 88.5114 79.947 87.7386 80.4318C86.9659 80.9167 86.0833 81.1591 85.0909 81.1591C84.0985 81.1591 83.2159 80.9167 82.4432 80.4318C81.6705 79.947 81.0625 79.2576 80.6193 78.3636C80.1761 77.4697 79.9545 76.4091 79.9545 75.1818C79.9545 73.9545 80.1761 72.8939 80.6193 72C81.0625 71.1061 81.6705 70.4167 82.4432 69.9318C83.2159 69.447 84.0985 69.2045 85.0909 69.2045C86.0833 69.2045 86.9659 69.447 87.7386 69.9318C88.5114 70.4167 89.1193 71.1061 89.5625 72C90.0057 72.8939 90.2273 73.9545 90.2273 75.1818ZM88.8636 75.1818C88.8636 74.1742 88.6951 73.3239 88.358 72.6307C88.0246 71.9375 87.572 71.4129 87 71.0568C86.4318 70.7008 85.7955 70.5227 85.0909 70.5227C84.3864 70.5227 83.7481 70.7008 83.1761 71.0568C82.608 71.4129 82.1553 71.9375 81.8182 72.6307C81.4848 73.3239 81.3182 74.1742 81.3182 75.1818C81.3182 76.1894 81.4848 77.0398 81.8182 77.733C82.1553 78.4261 82.608 78.9508 83.1761 79.3068C83.7481 79.6629 84.3864 79.8409 85.0909 79.8409C85.7955 79.8409 86.4318 79.6629 87 79.3068C87.572 78.9508 88.0246 78.4261 88.358 77.733C88.6951 77.0398 88.8636 76.1894 88.8636 75.1818ZM97.9148 77.4318V72.2727H99.2557V81H97.9148V79.5227H97.8239C97.6193 79.9659 97.3011 80.3428 96.8693 80.6534C96.4375 80.9602 95.892 81.1136 95.233 81.1136C94.6875 81.1136 94.2027 80.9943 93.7784 80.7557C93.3542 80.5133 93.0208 80.1496 92.7784 79.6648C92.536 79.1761 92.4148 78.5606 92.4148 77.8182V72.2727H93.7557V77.7273C93.7557 78.3636 93.9337 78.8712 94.2898 79.25C94.6496 79.6288 95.108 79.8182 95.6648 79.8182C95.9981 79.8182 96.3371 79.733 96.6818 79.5625C97.0303 79.392 97.322 79.1307 97.5568 78.7784C97.7955 78.4261 97.9148 77.9773 97.9148 77.4318ZM105.371 81.1818C104.53 81.1818 103.804 80.9962 103.195 80.625C102.589 80.25 102.121 79.7273 101.791 79.0568C101.465 78.3826 101.303 77.5985 101.303 76.7045C101.303 75.8106 101.465 75.0227 101.791 74.3409C102.121 73.6553 102.579 73.1212 103.166 72.7386C103.757 72.3523 104.446 72.1591 105.234 72.1591C105.689 72.1591 106.138 72.2348 106.581 72.3864C107.024 72.5379 107.428 72.7841 107.791 73.125C108.155 73.4621 108.445 73.9091 108.661 74.4659C108.876 75.0227 108.984 75.7083 108.984 76.5227V77.0909H102.257V75.9318H107.621C107.621 75.4394 107.522 75 107.325 74.6136C107.132 74.2273 106.856 73.9223 106.496 73.6989C106.14 73.4754 105.719 73.3636 105.234 73.3636C104.7 73.3636 104.238 73.4962 103.848 73.7614C103.462 74.0227 103.164 74.3636 102.956 74.7841C102.748 75.2045 102.643 75.6553 102.643 76.1364V76.9091C102.643 77.5682 102.757 78.1269 102.984 78.5852C103.215 79.0398 103.536 79.3864 103.945 79.625C104.354 79.8598 104.829 79.9773 105.371 79.9773C105.723 79.9773 106.041 79.928 106.325 79.8295C106.613 79.7273 106.861 79.5758 107.07 79.375C107.278 79.1705 107.439 78.9167 107.553 78.6136L108.848 78.9773C108.712 79.4167 108.482 79.803 108.161 80.1364C107.839 80.4659 107.441 80.7235 106.967 80.9091C106.494 81.0909 105.962 81.1818 105.371 81.1818ZM111.024 81V72.2727H112.32V73.5909H112.411C112.57 73.1591 112.857 72.8087 113.274 72.5398C113.691 72.2708 114.161 72.1364 114.683 72.1364C114.782 72.1364 114.905 72.1383 115.053 72.142C115.2 72.1458 115.312 72.1515 115.388 72.1591V73.5227C115.342 73.5114 115.238 73.4943 115.075 73.4716C114.916 73.4451 114.748 73.4318 114.57 73.4318C114.145 73.4318 113.767 73.5208 113.433 73.6989C113.104 73.8731 112.842 74.1155 112.649 74.4261C112.46 74.733 112.365 75.0833 112.365 75.4773V81H111.024ZM118.107 84.2727C117.879 84.2727 117.677 84.2538 117.499 84.2159C117.321 84.1818 117.197 84.1477 117.129 84.1136L117.47 82.9318C117.796 83.0152 118.084 83.0455 118.334 83.0227C118.584 83 118.805 82.8883 118.999 82.6875C119.196 82.4905 119.375 82.1705 119.538 81.7273L119.788 81.0455L116.561 72.2727H118.016L120.425 79.2273H120.516L122.925 72.2727H124.379L120.675 82.2727C120.508 82.7235 120.302 83.0966 120.055 83.392C119.809 83.6913 119.523 83.9129 119.197 84.0568C118.875 84.2008 118.512 84.2727 118.107 84.2727Z" fill="black"/>
<path d="M167.409 139V127.364H174.432V128.614H168.818V132.545H174.068V133.795H168.818V137.75H174.523V139H167.409ZM178.131 133.75V139H176.79V130.273H178.085V131.636H178.199C178.403 131.193 178.714 130.837 179.131 130.568C179.547 130.295 180.085 130.159 180.744 130.159C181.335 130.159 181.852 130.28 182.295 130.523C182.739 130.761 183.083 131.125 183.33 131.614C183.576 132.098 183.699 132.712 183.699 133.455V139H182.358V133.545C182.358 132.86 182.18 132.326 181.824 131.943C181.468 131.557 180.979 131.364 180.358 131.364C179.93 131.364 179.547 131.456 179.21 131.642C178.877 131.828 178.614 132.098 178.42 132.455C178.227 132.811 178.131 133.242 178.131 133.75ZM189.945 130.273V131.409H185.422V130.273H189.945ZM186.74 128.182H188.081V136.5C188.081 136.879 188.136 137.163 188.246 137.352C188.359 137.538 188.503 137.663 188.678 137.727C188.856 137.788 189.043 137.818 189.24 137.818C189.388 137.818 189.509 137.811 189.604 137.795C189.698 137.777 189.774 137.761 189.831 137.75L190.104 138.955C190.013 138.989 189.886 139.023 189.723 139.057C189.56 139.095 189.354 139.114 189.104 139.114C188.725 139.114 188.354 139.032 187.99 138.869C187.63 138.706 187.331 138.458 187.092 138.125C186.857 137.792 186.74 137.371 186.74 136.864V128.182ZM191.962 139V130.273H193.303V139H191.962ZM192.643 128.818C192.382 128.818 192.157 128.729 191.967 128.551C191.782 128.373 191.689 128.159 191.689 127.909C191.689 127.659 191.782 127.445 191.967 127.267C192.157 127.089 192.382 127 192.643 127C192.905 127 193.128 127.089 193.314 127.267C193.503 127.445 193.598 127.659 193.598 127.909C193.598 128.159 193.503 128.373 193.314 128.551C193.128 128.729 192.905 128.818 192.643 128.818ZM199.554 130.273V131.409H195.031V130.273H199.554ZM196.349 128.182H197.69V136.5C197.69 136.879 197.745 137.163 197.855 137.352C197.969 137.538 198.113 137.663 198.287 137.727C198.465 137.788 198.652 137.818 198.849 137.818C198.997 137.818 199.118 137.811 199.213 137.795C199.308 137.777 199.384 137.761 199.44 137.75L199.713 138.955C199.622 138.989 199.495 139.023 199.332 139.057C199.17 139.095 198.963 139.114 198.713 139.114C198.334 139.114 197.963 139.032 197.599 138.869C197.24 138.706 196.94 138.458 196.702 138.125C196.467 137.792 196.349 137.371 196.349 136.864V128.182ZM202.435 142.273C202.207 142.273 202.005 142.254 201.827 142.216C201.649 142.182 201.526 142.148 201.457 142.114L201.798 140.932C202.124 141.015 202.412 141.045 202.662 141.023C202.912 141 203.134 140.888 203.327 140.688C203.524 140.491 203.704 140.17 203.866 139.727L204.116 139.045L200.889 130.273H202.344L204.753 137.227H204.844L207.253 130.273H208.707L205.003 140.273C204.836 140.723 204.63 141.097 204.384 141.392C204.137 141.691 203.851 141.913 203.526 142.057C203.204 142.201 202.84 142.273 202.435 142.273Z" fill="black"/>
<path d="M326.886 138H325.409L329.682 126.364H331.136L335.409 138H333.932L330.455 128.205H330.364L326.886 138ZM327.432 133.455H333.386V134.705H327.432V133.455ZM337.04 138V129.273H338.335V130.591H338.426C338.585 130.159 338.873 129.809 339.29 129.54C339.706 129.271 340.176 129.136 340.699 129.136C340.797 129.136 340.92 129.138 341.068 129.142C341.216 129.146 341.328 129.152 341.403 129.159V130.523C341.358 130.511 341.254 130.494 341.091 130.472C340.932 130.445 340.763 130.432 340.585 130.432C340.161 130.432 339.782 130.521 339.449 130.699C339.119 130.873 338.858 131.116 338.665 131.426C338.475 131.733 338.381 132.083 338.381 132.477V138H337.04ZM346.273 138.182C345.455 138.182 344.75 137.989 344.159 137.602C343.568 137.216 343.114 136.684 342.795 136.006C342.477 135.328 342.318 134.553 342.318 133.682C342.318 132.795 342.481 132.013 342.807 131.335C343.136 130.653 343.595 130.121 344.182 129.739C344.773 129.352 345.462 129.159 346.25 129.159C346.864 129.159 347.417 129.273 347.909 129.5C348.402 129.727 348.805 130.045 349.119 130.455C349.434 130.864 349.629 131.341 349.705 131.886H348.364C348.261 131.489 348.034 131.136 347.682 130.83C347.333 130.519 346.864 130.364 346.273 130.364C345.75 130.364 345.292 130.5 344.898 130.773C344.508 131.042 344.203 131.422 343.983 131.915C343.767 132.403 343.659 132.977 343.659 133.636C343.659 134.311 343.765 134.898 343.977 135.398C344.193 135.898 344.496 136.286 344.886 136.562C345.28 136.839 345.742 136.977 346.273 136.977C346.621 136.977 346.938 136.917 347.222 136.795C347.506 136.674 347.746 136.5 347.943 136.273C348.14 136.045 348.28 135.773 348.364 135.455H349.705C349.629 135.97 349.441 136.434 349.142 136.847C348.847 137.256 348.455 137.581 347.966 137.824C347.481 138.062 346.917 138.182 346.273 138.182ZM353.006 132.75V138H351.665V126.364H353.006V130.636H353.119C353.324 130.186 353.631 129.828 354.04 129.562C354.453 129.294 355.002 129.159 355.688 129.159C356.282 129.159 356.803 129.278 357.25 129.517C357.697 129.752 358.044 130.114 358.29 130.602C358.54 131.087 358.665 131.705 358.665 132.455V138H357.324V132.545C357.324 131.852 357.144 131.316 356.784 130.938C356.428 130.555 355.934 130.364 355.301 130.364C354.862 130.364 354.468 130.456 354.119 130.642C353.775 130.828 353.502 131.098 353.301 131.455C353.104 131.811 353.006 132.242 353.006 132.75ZM364.777 138.182C363.936 138.182 363.211 137.996 362.601 137.625C361.995 137.25 361.527 136.727 361.197 136.057C360.872 135.383 360.709 134.598 360.709 133.705C360.709 132.811 360.872 132.023 361.197 131.341C361.527 130.655 361.985 130.121 362.572 129.739C363.163 129.352 363.853 129.159 364.641 129.159C365.095 129.159 365.544 129.235 365.987 129.386C366.43 129.538 366.834 129.784 367.197 130.125C367.561 130.462 367.851 130.909 368.067 131.466C368.283 132.023 368.391 132.708 368.391 133.523V134.091H361.663V132.932H367.027C367.027 132.439 366.929 132 366.732 131.614C366.538 131.227 366.262 130.922 365.902 130.699C365.546 130.475 365.125 130.364 364.641 130.364C364.107 130.364 363.644 130.496 363.254 130.761C362.868 131.023 362.571 131.364 362.362 131.784C362.154 132.205 362.05 132.655 362.05 133.136V133.909C362.05 134.568 362.163 135.127 362.391 135.585C362.622 136.04 362.942 136.386 363.351 136.625C363.76 136.86 364.235 136.977 364.777 136.977C365.129 136.977 365.447 136.928 365.732 136.83C366.019 136.727 366.268 136.576 366.476 136.375C366.684 136.17 366.845 135.917 366.959 135.614L368.254 135.977C368.118 136.417 367.889 136.803 367.567 137.136C367.245 137.466 366.847 137.723 366.374 137.909C365.9 138.091 365.368 138.182 364.777 138.182ZM374.226 129.273V130.409H369.703V129.273H374.226ZM371.021 127.182H372.362V135.5C372.362 135.879 372.417 136.163 372.527 136.352C372.641 136.538 372.785 136.663 372.959 136.727C373.137 136.788 373.324 136.818 373.521 136.818C373.669 136.818 373.79 136.811 373.885 136.795C373.98 136.777 374.055 136.761 374.112 136.75L374.385 137.955C374.294 137.989 374.167 138.023 374.004 138.057C373.841 138.095 373.635 138.114 373.385 138.114C373.006 138.114 372.635 138.032 372.271 137.869C371.911 137.706 371.612 137.458 371.374 137.125C371.139 136.792 371.021 136.371 371.021 135.864V127.182ZM377.107 141.273C376.879 141.273 376.677 141.254 376.499 141.216C376.321 141.182 376.197 141.148 376.129 141.114L376.47 139.932C376.796 140.015 377.084 140.045 377.334 140.023C377.584 140 377.805 139.888 377.999 139.688C378.196 139.491 378.375 139.17 378.538 138.727L378.788 138.045L375.561 129.273H377.016L379.425 136.227H379.516L381.925 129.273H383.379L379.675 139.273C379.508 139.723 379.302 140.097 379.055 140.392C378.809 140.691 378.523 140.913 378.197 141.057C377.875 141.201 377.512 141.273 377.107 141.273ZM385.149 141.273V129.273H386.445V130.659H386.604C386.702 130.508 386.839 130.314 387.013 130.08C387.191 129.841 387.445 129.629 387.774 129.443C388.107 129.254 388.558 129.159 389.126 129.159C389.861 129.159 390.509 129.343 391.07 129.71C391.63 130.078 392.068 130.598 392.382 131.273C392.696 131.947 392.854 132.742 392.854 133.659C392.854 134.583 392.696 135.384 392.382 136.062C392.068 136.737 391.632 137.259 391.075 137.631C390.518 137.998 389.876 138.182 389.149 138.182C388.589 138.182 388.14 138.089 387.803 137.903C387.465 137.714 387.206 137.5 387.024 137.261C386.842 137.019 386.702 136.818 386.604 136.659H386.49V141.273H385.149ZM386.467 133.636C386.467 134.295 386.564 134.877 386.757 135.381C386.95 135.881 387.232 136.273 387.604 136.557C387.975 136.837 388.429 136.977 388.967 136.977C389.528 136.977 389.996 136.83 390.371 136.534C390.75 136.235 391.034 135.833 391.223 135.33C391.416 134.822 391.513 134.258 391.513 133.636C391.513 133.023 391.418 132.47 391.229 131.977C391.043 131.481 390.761 131.089 390.382 130.801C390.007 130.509 389.536 130.364 388.967 130.364C388.422 130.364 387.964 130.502 387.592 130.778C387.221 131.051 386.941 131.434 386.751 131.926C386.562 132.415 386.467 132.985 386.467 133.636ZM398.558 138.182C397.717 138.182 396.992 137.996 396.382 137.625C395.776 137.25 395.308 136.727 394.979 136.057C394.653 135.383 394.49 134.598 394.49 133.705C394.49 132.811 394.653 132.023 394.979 131.341C395.308 130.655 395.767 130.121 396.354 129.739C396.945 129.352 397.634 129.159 398.422 129.159C398.876 129.159 399.325 129.235 399.768 129.386C400.212 129.538 400.615 129.784 400.979 130.125C401.342 130.462 401.632 130.909 401.848 131.466C402.064 132.023 402.172 132.708 402.172 133.523V134.091H395.445V132.932H400.808C400.808 132.439 400.71 132 400.513 131.614C400.32 131.227 400.043 130.922 399.683 130.699C399.327 130.475 398.907 130.364 398.422 130.364C397.888 130.364 397.426 130.496 397.036 130.761C396.649 131.023 396.352 131.364 396.143 131.784C395.935 132.205 395.831 132.655 395.831 133.136V133.909C395.831 134.568 395.945 135.127 396.172 135.585C396.403 136.04 396.723 136.386 397.132 136.625C397.541 136.86 398.017 136.977 398.558 136.977C398.911 136.977 399.229 136.928 399.513 136.83C399.801 136.727 400.049 136.576 400.257 136.375C400.465 136.17 400.626 135.917 400.74 135.614L402.036 135.977C401.899 136.417 401.67 136.803 401.348 137.136C401.026 137.466 400.628 137.723 400.155 137.909C399.681 138.091 399.149 138.182 398.558 138.182Z" fill="black"/>
<path d="M494.773 129H493.364C493.28 128.595 493.134 128.239 492.926 127.932C492.722 127.625 492.472 127.367 492.176 127.159C491.884 126.947 491.561 126.788 491.205 126.682C490.848 126.576 490.477 126.523 490.091 126.523C489.386 126.523 488.748 126.701 488.176 127.057C487.608 127.413 487.155 127.938 486.818 128.631C486.485 129.324 486.318 130.174 486.318 131.182C486.318 132.189 486.485 133.04 486.818 133.733C487.155 134.426 487.608 134.951 488.176 135.307C488.748 135.663 489.386 135.841 490.091 135.841C490.477 135.841 490.848 135.788 491.205 135.682C491.561 135.576 491.884 135.419 492.176 135.21C492.472 134.998 492.722 134.739 492.926 134.432C493.134 134.121 493.28 133.765 493.364 133.364H494.773C494.667 133.958 494.473 134.491 494.193 134.96C493.913 135.43 493.564 135.83 493.148 136.159C492.731 136.485 492.263 136.733 491.744 136.903C491.229 137.074 490.678 137.159 490.091 137.159C489.098 137.159 488.216 136.917 487.443 136.432C486.67 135.947 486.063 135.258 485.619 134.364C485.176 133.47 484.955 132.409 484.955 131.182C484.955 129.955 485.176 128.894 485.619 128C486.063 127.106 486.67 126.417 487.443 125.932C488.216 125.447 489.098 125.205 490.091 125.205C490.678 125.205 491.229 125.29 491.744 125.46C492.263 125.631 492.731 125.881 493.148 126.21C493.564 126.536 493.913 126.934 494.193 127.403C494.473 127.869 494.667 128.402 494.773 129ZM500.413 137.182C499.625 137.182 498.934 136.994 498.339 136.619C497.749 136.244 497.286 135.72 496.953 135.045C496.624 134.371 496.459 133.583 496.459 132.682C496.459 131.773 496.624 130.979 496.953 130.301C497.286 129.623 497.749 129.097 498.339 128.722C498.934 128.347 499.625 128.159 500.413 128.159C501.201 128.159 501.891 128.347 502.482 128.722C503.076 129.097 503.538 129.623 503.868 130.301C504.201 130.979 504.368 131.773 504.368 132.682C504.368 133.583 504.201 134.371 503.868 135.045C503.538 135.72 503.076 136.244 502.482 136.619C501.891 136.994 501.201 137.182 500.413 137.182ZM500.413 135.977C501.012 135.977 501.504 135.824 501.891 135.517C502.277 135.21 502.563 134.807 502.749 134.307C502.934 133.807 503.027 133.265 503.027 132.682C503.027 132.098 502.934 131.555 502.749 131.051C502.563 130.547 502.277 130.14 501.891 129.83C501.504 129.519 501.012 129.364 500.413 129.364C499.815 129.364 499.322 129.519 498.936 129.83C498.55 130.14 498.264 130.547 498.078 131.051C497.893 131.555 497.8 132.098 497.8 132.682C497.8 133.265 497.893 133.807 498.078 134.307C498.264 134.807 498.55 135.21 498.936 135.517C499.322 135.824 499.815 135.977 500.413 135.977ZM506.415 137V128.273H507.71V129.636H507.824C508.006 129.17 508.299 128.809 508.705 128.551C509.11 128.29 509.597 128.159 510.165 128.159C510.741 128.159 511.22 128.29 511.602 128.551C511.989 128.809 512.29 129.17 512.506 129.636H512.597C512.82 129.186 513.155 128.828 513.602 128.562C514.049 128.294 514.585 128.159 515.21 128.159C515.991 128.159 516.629 128.403 517.125 128.892C517.621 129.377 517.869 130.133 517.869 131.159V137H516.528V131.159C516.528 130.515 516.352 130.055 516 129.778C515.648 129.502 515.233 129.364 514.756 129.364C514.142 129.364 513.667 129.549 513.33 129.92C512.992 130.288 512.824 130.754 512.824 131.318V137H511.46V131.023C511.46 130.527 511.299 130.127 510.977 129.824C510.655 129.517 510.241 129.364 509.733 129.364C509.384 129.364 509.059 129.456 508.756 129.642C508.456 129.828 508.214 130.085 508.028 130.415C507.847 130.741 507.756 131.117 507.756 131.545V137H506.415ZM520.321 140.273V128.273H521.616V129.659H521.776C521.874 129.508 522.01 129.314 522.185 129.08C522.363 128.841 522.616 128.629 522.946 128.443C523.279 128.254 523.73 128.159 524.298 128.159C525.033 128.159 525.681 128.343 526.241 128.71C526.802 129.078 527.24 129.598 527.554 130.273C527.868 130.947 528.026 131.742 528.026 132.659C528.026 133.583 527.868 134.384 527.554 135.062C527.24 135.737 526.804 136.259 526.247 136.631C525.69 136.998 525.048 137.182 524.321 137.182C523.76 137.182 523.312 137.089 522.974 136.903C522.637 136.714 522.378 136.5 522.196 136.261C522.014 136.019 521.874 135.818 521.776 135.659H521.662V140.273H520.321ZM521.639 132.636C521.639 133.295 521.736 133.877 521.929 134.381C522.122 134.881 522.404 135.273 522.776 135.557C523.147 135.837 523.601 135.977 524.139 135.977C524.7 135.977 525.168 135.83 525.543 135.534C525.921 135.235 526.205 134.833 526.395 134.33C526.588 133.822 526.685 133.258 526.685 132.636C526.685 132.023 526.59 131.47 526.401 130.977C526.215 130.481 525.933 130.089 525.554 129.801C525.179 129.509 524.707 129.364 524.139 129.364C523.594 129.364 523.135 129.502 522.764 129.778C522.393 130.051 522.113 130.434 521.923 130.926C521.734 131.415 521.639 131.985 521.639 132.636ZM533.616 137.182C532.829 137.182 532.137 136.994 531.543 136.619C530.952 136.244 530.49 135.72 530.156 135.045C529.827 134.371 529.662 133.583 529.662 132.682C529.662 131.773 529.827 130.979 530.156 130.301C530.49 129.623 530.952 129.097 531.543 128.722C532.137 128.347 532.829 128.159 533.616 128.159C534.404 128.159 535.094 128.347 535.685 128.722C536.279 129.097 536.741 129.623 537.071 130.301C537.404 130.979 537.571 131.773 537.571 132.682C537.571 133.583 537.404 134.371 537.071 135.045C536.741 135.72 536.279 136.244 535.685 136.619C535.094 136.994 534.404 137.182 533.616 137.182ZM533.616 135.977C534.215 135.977 534.707 135.824 535.094 135.517C535.48 135.21 535.766 134.807 535.952 134.307C536.137 133.807 536.23 133.265 536.23 132.682C536.23 132.098 536.137 131.555 535.952 131.051C535.766 130.547 535.48 130.14 535.094 129.83C534.707 129.519 534.215 129.364 533.616 129.364C533.018 129.364 532.526 129.519 532.139 129.83C531.753 130.14 531.467 130.547 531.281 131.051C531.096 131.555 531.003 132.098 531.003 132.682C531.003 133.265 531.096 133.807 531.281 134.307C531.467 134.807 531.753 135.21 532.139 135.517C532.526 135.824 533.018 135.977 533.616 135.977ZM540.959 131.75V137H539.618V128.273H540.913V129.636H541.027C541.232 129.193 541.542 128.837 541.959 128.568C542.375 128.295 542.913 128.159 543.572 128.159C544.163 128.159 544.68 128.28 545.124 128.523C545.567 128.761 545.911 129.125 546.158 129.614C546.404 130.098 546.527 130.712 546.527 131.455V137H545.186V131.545C545.186 130.86 545.008 130.326 544.652 129.943C544.296 129.557 543.807 129.364 543.186 129.364C542.758 129.364 542.375 129.456 542.038 129.642C541.705 129.828 541.442 130.098 541.249 130.455C541.055 130.811 540.959 131.242 540.959 131.75ZM552.636 137.182C551.795 137.182 551.07 136.996 550.46 136.625C549.854 136.25 549.386 135.727 549.057 135.057C548.731 134.383 548.568 133.598 548.568 132.705C548.568 131.811 548.731 131.023 549.057 130.341C549.386 129.655 549.845 129.121 550.432 128.739C551.023 128.352 551.712 128.159 552.5 128.159C552.955 128.159 553.403 128.235 553.847 128.386C554.29 128.538 554.693 128.784 555.057 129.125C555.42 129.462 555.71 129.909 555.926 130.466C556.142 131.023 556.25 131.708 556.25 132.523V133.091H549.523V131.932H554.886C554.886 131.439 554.788 131 554.591 130.614C554.398 130.227 554.121 129.922 553.761 129.699C553.405 129.475 552.985 129.364 552.5 129.364C551.966 129.364 551.504 129.496 551.114 129.761C550.727 130.023 550.43 130.364 550.222 130.784C550.013 131.205 549.909 131.655 549.909 132.136V132.909C549.909 133.568 550.023 134.127 550.25 134.585C550.481 135.04 550.801 135.386 551.21 135.625C551.619 135.86 552.095 135.977 552.636 135.977C552.989 135.977 553.307 135.928 553.591 135.83C553.879 135.727 554.127 135.576 554.335 135.375C554.544 135.17 554.705 134.917 554.818 134.614L556.114 134.977C555.977 135.417 555.748 135.803 555.426 136.136C555.104 136.466 554.706 136.723 554.233 136.909C553.759 137.091 553.227 137.182 552.636 137.182ZM559.631 131.75V137H558.29V128.273H559.585V129.636H559.699C559.903 129.193 560.214 128.837 560.631 128.568C561.047 128.295 561.585 128.159 562.244 128.159C562.835 128.159 563.352 128.28 563.795 128.523C564.239 128.761 564.583 129.125 564.83 129.614C565.076 130.098 565.199 130.712 565.199 131.455V137H563.858V131.545C563.858 130.86 563.68 130.326 563.324 129.943C562.968 129.557 562.479 129.364 561.858 129.364C561.43 129.364 561.047 129.456 560.71 129.642C560.377 129.828 560.114 130.098 559.92 130.455C559.727 130.811 559.631 131.242 559.631 131.75ZM571.445 128.273V129.409H566.922V128.273H571.445ZM568.24 126.182H569.581V134.5C569.581 134.879 569.636 135.163 569.746 135.352C569.859 135.538 570.003 135.663 570.178 135.727C570.356 135.788 570.543 135.818 570.74 135.818C570.888 135.818 571.009 135.811 571.104 135.795C571.198 135.777 571.274 135.761 571.331 135.75L571.604 136.955C571.513 136.989 571.386 137.023 571.223 137.057C571.06 137.095 570.854 137.114 570.604 137.114C570.225 137.114 569.854 137.032 569.49 136.869C569.13 136.706 568.831 136.458 568.592 136.125C568.357 135.792 568.24 135.371 568.24 134.864V126.182Z" fill="black"/>
<rect x="0.5" y="0.5" width="113" height="24" stroke="black"/>
<rect x="160.5" y="0.5" width="112" height="24" stroke="black"/>
<rect x="160.5" y="119.5" width="112" height="24" stroke="black"/>
<rect x="0.5" y="119.5" width="113" height="24" stroke="black"/>
<rect x="319.5" y="119.5" width="113" height="24" stroke="black"/>
<rect x="479.5" y="119.5" width="113" height="24" stroke="black"/>
<rect x="74.5" y="61.5" width="113" height="24" stroke="black"/>
<path d="M54 119L56.8868 114H51.1132L54 119ZM53.5 24L53.5 114.5H54.5L54.5 24H53.5Z" fill="black"/>
<path d="M217 118L219.887 113H214.113L217 118ZM216.5 25V113.5H217.5V25H216.5Z" fill="black"/>
<path d="M57 119L62.7469 119.553L60.3525 114.3L57 119ZM130.293 85.045L60.8874 116.679L61.3021 117.589L130.707 85.955L130.293 85.045Z" fill="black"/>
<path d="M135 61L140.739 61.6333L138.418 56.3468L135 61ZM216.799 24.5422L138.919 58.7332L139.321 59.6489L217.201 25.4578L216.799 24.5422Z" fill="black"/>
<path d="M536 118L532.008 113.829L530.392 119.372L536 118ZM531.82 116.261L217.14 24.52L216.86 25.48L531.54 117.221L531.82 116.261Z" fill="black"/>
<path d="M317 131L312 128.113V133.887L317 131ZM273 131.5L312.5 131.5V130.5L273 130.5V131.5Z" fill="black"/>
<path d="M158 131L153 128.113V133.887L158 131ZM114 131.5L153.5 131.5V130.5L114 130.5V131.5Z" fill="black"/>
<path d="M158 131L153 128.113V133.887L158 131ZM114 131.5L153.5 131.5V130.5L114 130.5V131.5Z" fill="black"/>
<path d="M158 12L153 9.11325V14.8868L158 12ZM114 12.5L153.5 12.5V11.5L114 11.5V12.5Z" fill="black"/>
<path d="M477 131L472 128.113V133.887L477 131ZM433 131.5L472.5 131.5V130.5L433 130.5V131.5Z" fill="black"/>
</svg>
